<svg width="811" height="796" viewBox="0 0 811 796" fill="none" xmlns="http://www.w3.org/2000/svg">
<path d="M609.75 578.325C586.285 590.14 555.437 580.048 543.623 556.664L545.1 555.926C556.504 578.489 586.367 588.252 609.011 576.848L609.75 578.325ZM630.835 512.523C643.059 536.645 633.542 566.264 609.75 578.325L609.011 576.848C631.983 565.197 641.172 536.562 629.358 513.261L630.835 512.523ZM565.611 491.19C589.895 478.637 618.528 488.072 630.917 512.523L629.44 513.261C617.462 489.631 589.813 480.524 566.349 492.585L565.611 491.19ZM543.623 556.746C531.481 532.788 541.49 503.579 565.529 491.19L566.267 492.667C542.967 504.728 533.368 532.952 545.018 556.008L543.623 556.746Z" fill="#DDB685" fill-opacity="0.2"/>
<path d="M809.031 519.906L808.949 519.824L810.344 518.922L810.426 519.004L809.031 519.906ZM693.269 491.026C728.383 518.183 766.041 527.045 809.523 518.676L809.851 520.317C765.959 528.768 727.727 519.824 692.284 492.338L693.269 491.026ZM668.902 609.174C695.648 573.237 701.227 534.675 691.956 491.846L693.597 491.518C702.95 534.675 697.289 573.73 670.215 610.159L668.902 609.174ZM785.731 637.891C750.781 609.585 712.467 603.267 669.723 610.405L669.476 608.764C712.549 601.544 751.355 607.944 786.797 636.578L785.731 637.891ZM810.262 519.824C784.254 555.761 778.511 593.995 786.962 637.07L785.321 637.399C776.706 593.913 782.531 555.187 808.867 518.84L810.262 519.824ZM809.687 519.496L810.344 519.086L811 520.07L809.851 520.317L809.687 519.496ZM692.777 491.682L691.956 491.846L691.464 489.631L693.269 491.026L692.777 491.682ZM669.559 609.667L669.723 610.487L667.672 610.815L668.902 609.174L669.559 609.667ZM786.223 637.317L787.044 637.153L787.454 639.368L785.731 637.973L786.223 637.317ZM809.605 519.332L808.949 518.84L809.687 517.855L810.344 518.922L809.605 519.332Z" fill="#DDB685" fill-opacity="0.2"/>
<mask id="mask0_9_9" style="mask-type:luminance" maskUnits="userSpaceOnUse" x="370" y="0" width="159" height="414">
<path d="M453.541 412.053L453.435 412.734L453.08 412.143C387.597 303.245 345.217 190.511 388.654 62.1648L388.654 62.1636C392.193 51.8764 398.115 41.7605 404.774 33.2106L404.775 33.2083C423.598 9.61657 447.48 -4.65098 478.866 2.68104L478.869 2.68162C508.918 10.0092 527.214 32.6645 528.121 61.1704L528.122 61.215L528.108 61.2574L528.04 61.4612C529.021 92.8915 525.9 126.466 515.225 155.865C487.171 233.224 465.272 311.558 456.743 393.332C456.454 396.503 455.898 399.61 455.293 402.709C455.156 403.408 455.017 404.107 454.878 404.806C454.4 407.207 453.922 409.611 453.541 412.053Z" fill="white" stroke="white" stroke-width="0.5"/>
</mask>
<g mask="url(#mask0_9_9)">
<path d="M528.445 60.8501L528.527 61.0142L527.051 61.7526L526.969 61.5885L528.445 60.8501ZM478.892 2.186C509.247 9.57028 527.625 32.4616 528.527 61.1783L526.887 61.2603C525.984 33.2821 508.099 10.9651 478.481 3.82695L478.892 2.186ZM404.233 32.8718C423.185 9.16006 447.223 -5.28033 478.892 2.186L478.481 3.74491C447.715 -3.47528 424.251 10.4728 405.546 33.8564L404.233 32.8718ZM388.07 61.9988C391.68 51.6608 397.587 41.4868 404.233 32.8718L405.546 33.8564C398.982 42.3073 393.157 52.3171 389.629 62.491L388.07 61.9988ZM452.556 412.424C387.004 303.547 344.588 190.567 388.07 61.9988L389.629 62.491C346.311 190.403 388.563 302.809 454.033 411.604L452.556 412.424ZM457.314 393.389C456.74 399.707 455.099 406.025 454.115 412.178L452.474 411.932C453.54 405.532 455.099 399.543 455.674 393.225L457.314 393.389ZM515.811 156.025C487.834 233.396 465.847 311.67 457.314 393.389L455.674 393.225C464.206 311.342 486.193 232.986 514.252 155.533L515.811 156.025ZM528.609 61.3423C529.676 92.7666 526.476 126.488 515.729 156.025L514.17 155.451C524.836 126.16 527.953 92.6845 526.887 61.4244L528.609 61.3423ZM527.707 61.1783L526.969 61.5885L526.887 61.4244L526.887 61.2603L527.707 61.1783ZM453.294 412.014L454.115 412.178L453.787 414.393L452.638 412.506L453.294 412.014ZM527.789 61.4244L528.527 61.0142L528.609 61.1783L528.609 61.3423L527.789 61.4244Z" fill="#DDB685" fill-opacity="0.2"/>
<path d="M528.618 61.5928C529.656 92.854 526.467 126.37 515.823 155.767L528.618 61.5928ZM528.618 61.5928L528.369 61.6177M479.198 2.00367C509.43 9.45743 527.775 32.2922 528.77 60.9397L528.833 61.0665L528.84 61.0811L528.851 61.0806L528.852 61.1033L528.859 61.1192L528.863 61.126L528.859 61.1276L528.859 61.1783L528.859 61.3379C529.923 92.6857 526.745 126.331 516.061 155.842L516.135 155.865L516.046 156.11C488.073 233.47 466.093 311.722 457.563 393.414C457.275 396.585 456.719 399.753 456.114 402.893C455.955 403.717 455.793 404.538 455.631 405.358C455.176 407.664 454.724 409.951 454.362 412.217C454.362 412.217 454.362 412.217 454.362 412.218L454.034 414.43L453.933 415.114L453.573 414.523L452.491 412.746L452.466 412.76L452.342 412.553C386.818 303.723 344.368 190.735 387.752 62.1604L387.749 62.1596L387.834 61.9187L387.834 61.9163L387.912 61.6866L387.915 61.6874C391.514 51.4786 397.334 41.4454 403.88 32.9199L403.877 32.9171L404.035 32.7191L404.038 32.7157L404.186 32.5238L404.189 32.5265C423.105 8.94315 447.115 -5.46104 478.709 1.88643L478.709 1.88437L478.949 1.94267L478.951 1.94308L479.199 2.00154L479.198 2.00367Z" stroke="#DDB685" stroke-opacity="0.2" stroke-width="0.5"/>
</g>
<mask id="mask1_9_9" style="mask-type:luminance" maskUnits="userSpaceOnUse" x="101" y="638" width="494" height="387">
<path d="M101.953 934.348C101.202 910.849 114.095 887.192 141.155 867.693L141.14 867.668C178.65 840.827 219.768 818.256 261.868 799.38C285.476 788.731 309.231 778.389 332.984 768.049C420.523 729.941 508.031 691.846 588.033 638.422L588.191 638.317L588.335 638.44C589.198 639.18 590.081 639.96 590.963 640.74C591.845 641.519 592.726 642.298 593.585 643.035L593.737 643.164L593.644 643.341C588.721 652.682 583.969 662.113 579.217 671.544C569.327 691.171 559.44 710.794 548.021 729.586L548.021 729.587C478.844 843.164 393.082 941.248 275.467 1008.14L275.343 1007.93L275.467 1008.14C252.743 1021.05 230.378 1026.07 208.51 1024.32C186.644 1022.57 165.292 1014.06 144.59 999.928C117.145 981.192 102.705 957.887 101.953 934.348Z" fill="white" stroke="white" stroke-width="0.5"/>
</mask>
<g mask="url(#mask1_9_9)">
<path d="M141.86 868.446L141.696 868.528L140.958 867.051L141.122 866.969L141.86 868.446ZM144.322 1000.38C116.755 981.589 102.234 958.124 101.413 934.33C100.675 910.536 113.72 886.66 141.04 867.133L142.024 868.446C115.032 887.809 102.398 911.193 103.136 934.33C103.875 957.467 118.068 980.441 145.306 999.066L144.322 1000.38ZM275.754 1008.58C252.946 1021.55 230.466 1026.63 208.479 1024.83C186.492 1023.11 165.078 1014.49 144.322 1000.38L145.224 998.984C165.817 1013.01 186.984 1021.46 208.561 1023.19C230.22 1024.91 252.372 1019.99 274.934 1007.11L275.754 1008.58ZM548.546 729.785C479.302 843.421 393.567 941.55 275.754 1008.5L274.934 1007.11C392.419 940.319 477.989 842.354 547.151 728.964L548.546 729.785ZM594.162 643.553C578.984 672.269 565.447 701.971 548.546 729.785L547.151 728.964C564.052 701.15 577.507 671.613 592.767 642.814L594.162 643.553ZM588.747 637.973C589.649 638.712 590.47 639.45 591.372 640.271C592.275 641.009 593.177 641.83 593.997 642.568L592.931 643.799C592.028 643.06 591.208 642.322 590.306 641.502C589.403 640.763 588.501 639.943 587.68 639.204L588.747 637.973ZM261.643 798.869C372.318 748.902 486.029 705.827 587.762 637.891L588.665 639.286C486.85 707.304 372.893 750.461 262.381 800.346L261.643 798.869ZM140.794 867.215C178.287 840.385 219.473 817.74 261.643 798.869L262.299 800.346C220.211 819.217 179.108 841.78 141.696 868.528L140.794 867.215ZM141.45 867.707L141.04 866.969L141.942 868.364L141.45 867.707ZM593.423 643.142L593.915 642.486L594.408 642.896L594.08 643.471L593.423 643.142ZM588.172 638.63L587.68 637.973L588.172 637.645L588.665 638.056L588.172 638.63ZM141.286 867.871L141.696 868.61L140.794 867.215L141.286 867.871Z" fill="#DDB685" fill-opacity="0.2"/>
<path d="M145.142 998.65C118.146 980.092 104.118 957.269 103.386 934.322C102.651 911.291 115.225 887.979 142.17 868.649L142.378 868.5L142.304 868.401C179.53 841.842 220.4 819.416 262.25 800.642L262.265 800.673L262.484 800.574C286.172 789.881 310.021 779.496 333.877 769.109C421.048 731.151 508.307 693.156 588.129 639.944C588.774 640.524 589.458 641.131 590.142 641.691C590.829 642.316 591.472 642.895 592.14 643.464C587.163 652.881 582.376 662.369 577.595 671.846C567.868 691.125 558.166 710.355 546.939 728.832L145.142 998.65ZM145.142 998.65L145.153 998.633L145.365 998.777C165.931 1012.79 187.057 1021.22 208.581 1022.94C230.115 1024.65 252.143 1019.78 274.59 1007.01L274.589 1007.01L274.81 1006.89L274.81 1006.89C274.811 1006.89 274.812 1006.89 274.814 1006.89L275.029 1006.76L275.029 1006.76C392.354 940.007 477.833 842.13 546.938 728.834L145.142 998.65ZM261.538 798.642C261.539 798.642 261.539 798.642 261.54 798.641C285.288 787.92 309.174 777.516 333.05 767.117C420.461 729.044 507.734 691.032 587.623 637.684L587.834 637.543L587.847 637.562L588.034 637.437L588.189 637.334L588.333 637.453L588.643 637.712L588.717 637.626L588.905 637.78C589.811 638.522 590.635 639.263 591.535 640.081C592.36 640.756 593.184 641.499 593.941 642.181L593.957 642.196L594.076 642.294L594.568 642.704L594.729 642.838L594.625 643.02L594.408 643.4L594.499 643.449L594.383 643.67C589.36 653.172 584.515 662.787 579.667 672.409C569.911 691.769 560.143 711.154 548.891 729.698L548.891 729.698L548.76 729.915L548.759 729.915C548.758 729.917 548.757 729.919 548.756 729.921L548.632 730.125L548.631 730.125C479.431 843.637 393.754 941.681 276.058 1008.62L276.093 1008.68L275.878 1008.8C253.031 1021.79 230.501 1026.89 208.459 1025.08C186.488 1023.36 165.1 1014.77 144.379 1000.72L144.378 1000.72L144.192 1000.59C144.188 1000.59 144.185 1000.59 144.181 1000.59L144.181 1000.58L143.979 1000.45L143.979 1000.45C116.5 981.652 101.985 958.177 101.163 934.339L101.163 934.338C100.425 910.555 113.399 886.726 140.492 867.218L140.449 867.154L140.648 867.012C140.651 867.01 140.653 867.008 140.656 867.006L140.622 866.939L140.846 866.827L141.01 866.745L141.046 866.727C178.448 840.011 219.506 817.452 261.538 798.642Z" stroke="#DDB685" stroke-opacity="0.2" stroke-width="0.5"/>
</g>
<mask id="mask2_9_9" style="mask-type:luminance" maskUnits="userSpaceOnUse" x="105" y="240" width="375" height="320">
<path d="M149.919 442.739L149.918 442.739C104.514 410 93.8406 342.577 120.391 293.419C138.736 259.4 174.392 241.497 210.891 240.326C247.391 239.154 284.768 254.713 306.564 287.656L306.565 287.657C317.572 304.415 326.276 323.304 333.499 342.02L333.499 342.021C365.003 424.806 400.342 505.062 477.885 558.509L478.468 558.911L477.762 558.965C454.876 560.69 418.256 556.294 379.72 547.893C341.18 539.491 300.693 527.077 270.069 512.749L269.972 512.704L269.938 512.602L269.889 512.457C228.07 492.77 187.315 469.476 149.919 442.739Z" fill="white" stroke="white" stroke-width="0.5"/>
</mask>
<g mask="url(#mask2_9_9)">
<path d="M269.436 512.851L269.354 512.687L270.831 511.948L270.913 512.113L269.436 512.851ZM477.825 559.536C454.853 561.259 418.18 556.828 379.62 548.46C341.06 540.009 300.531 527.62 269.847 513.261L270.585 511.784C301.105 526.061 341.47 538.45 379.948 546.901C418.426 555.269 454.935 559.7 477.661 557.977L477.825 559.536ZM334.004 341.782C365.59 424.568 400.787 504.646 478.153 558.059L477.25 559.372C399.392 505.713 364.032 425.142 332.445 342.356L334.004 341.782ZM307.012 287.302C318.006 304.122 326.784 323.075 334.004 341.782L332.445 342.356C325.225 323.649 316.529 304.86 305.617 288.204L307.012 287.302ZM119.955 293.127C138.414 258.914 174.267 240.863 210.94 239.714C247.613 238.566 285.189 254.155 307.094 287.302L305.699 288.204C284.122 255.632 247.121 240.207 210.94 241.355C174.759 242.504 139.481 260.308 121.349 293.866L119.955 293.127ZM149.572 443.193C103.956 410.21 93.2908 342.52 119.955 293.127L121.431 293.866C95.0958 342.684 105.679 409.471 150.639 441.88L149.572 443.193ZM269.765 513.015C227.923 493.324 187.066 470.022 149.654 443.193L150.639 441.88C187.968 468.627 228.743 491.929 270.503 511.538L269.765 513.015ZM270.175 512.441L269.847 513.179L269.601 513.097L269.436 512.851L270.175 512.441ZM477.743 558.715L478.235 558.059L480.122 559.372L477.825 559.536L477.743 558.715ZM270.093 512.277L270.421 511.538L270.667 511.62L270.831 511.866L270.093 512.277Z" fill="#DDB685" fill-opacity="0.2"/>
<path d="M149.648 443.496C186.916 470.208 227.596 493.42 269.258 513.053L269.325 513.186L269.351 513.173L269.392 513.236L269.44 513.307L269.521 513.334L269.529 513.337L269.508 513.379L269.741 513.488C300.447 527.856 340.995 540.25 379.566 548.704L379.567 548.704C418.133 557.074 454.835 561.511 477.844 559.785L477.844 559.785L480.14 559.621L480.846 559.571L480.265 559.167L478.378 557.854L478.18 557.716L478.151 557.754C401.028 504.44 365.871 424.579 334.328 341.929L334.329 341.928L334.238 341.694C334.238 341.693 334.238 341.693 334.238 341.692L334.237 341.692L334.149 341.462L334.149 341.462C326.977 322.912 318.269 304.122 307.383 287.413L307.442 287.375L307.303 287.164C285.342 253.933 247.678 238.314 210.932 239.465C174.262 240.613 138.393 258.628 119.85 292.796L119.85 292.796L119.758 292.966L149.648 443.496ZM149.648 443.496L149.617 443.534L149.426 443.395C103.762 410.377 93.0523 342.698 119.615 293.231L119.615 293.231L119.711 293.053C119.718 293.04 119.726 293.026 119.733 293.012C119.734 293.011 119.734 293.01 119.735 293.009L149.648 443.496ZM121.71 293.726C139.833 260.427 174.933 242.749 210.948 241.605C246.964 240.462 283.781 255.775 305.326 288.095L305.27 288.131L305.408 288.341C316.306 304.976 324.995 323.747 332.211 342.444L121.71 293.726ZM121.71 293.726L121.774 293.758L121.652 293.985C95.3662 342.71 105.942 409.352 150.785 441.677M121.71 293.726L150.785 441.677M150.785 441.677C188.1 468.414 228.862 491.708 270.609 511.312L270.796 511.4L270.828 511.41L270.832 511.416L270.841 511.421L270.838 511.426L270.875 511.482L271.032 511.717C301.489 525.916 341.678 538.239 380.001 546.656C380.001 546.656 380.001 546.656 380.002 546.656L379.948 546.901C416.984 554.956 452.196 559.362 475.049 558.145C474.938 558.067 474.828 557.99 474.717 557.912L150.785 441.677Z" stroke="#DDB685" stroke-opacity="0.2" stroke-width="0.5"/>
</g>
<mask id="mask3_9_9" style="mask-type:luminance" maskUnits="userSpaceOnUse" x="0" y="512" width="473" height="214">
<path d="M11.813 561.174L11.6469 561.257L12.0117 560.568C22.4154 540.911 37.78 526.694 56.8426 519.039C75.9038 511.386 98.6445 510.301 123.792 516.876L123.793 516.876C157.683 525.828 190.958 537.98 224.084 550.076C229.224 551.953 234.36 553.829 239.494 555.691L239.496 555.691C253.113 560.73 266.656 565.987 280.193 571.241C341.63 595.087 402.927 618.88 470.452 621.97L470.646 621.979L470.686 622.17C471.176 624.541 471.83 627.075 472.565 629.279L472.635 629.49L472.434 629.585C461.493 634.709 450.618 639.982 439.746 645.254C417.206 656.183 394.677 667.107 371.593 676.685L371.593 676.685C297.164 707.46 220.414 728.889 138.811 724.62C100.626 722.649 64.8741 712.463 36.0204 686.074C0.454127 653.694 -9.34727 601.714 11.813 561.174Z" fill="white" stroke="white" stroke-width="0.5"/>
</mask>
<g mask="url(#mask3_9_9)">
<path d="M12.8069 561.341L12.6429 561.423L11.9045 559.946L12.0686 559.864L12.8069 561.341ZM35.6148 686.464C-0.319886 653.727 -10.083 601.134 11.6583 560.192L13.1351 560.931C-8.27802 601.134 1.32097 652.988 36.6814 685.233L35.6148 686.464ZM138.742 725.19C100.429 723.221 64.4938 712.965 35.5328 686.464L36.5993 685.233C65.2322 711.406 100.757 721.498 138.742 723.467L138.742 725.19ZM371.826 677.192C297.331 707.96 220.539 729.456 138.824 725.19L138.907 723.549C220.293 727.815 296.839 706.483 371.251 675.715L371.826 677.192ZM472.656 630.178C439.101 645.932 406.037 663.08 371.826 677.274L371.169 675.797C405.381 661.521 438.28 644.455 471.918 628.702L472.656 630.178ZM471.261 622.056C471.754 624.435 472.41 626.896 473.066 629.194L471.508 629.686C470.769 627.389 470.195 624.845 469.621 622.466L471.261 622.056ZM239.655 555.187C315.134 583.083 388.152 617.625 470.441 621.399L470.359 623.04C387.66 619.266 314.396 584.56 239.081 556.664L239.655 555.187ZM123.975 516.297C163.191 526.635 201.505 541.239 239.655 555.187L239.081 556.746C200.849 542.798 162.617 528.193 123.483 517.938L123.975 516.297ZM11.4943 560.274C21.9957 540.501 37.4197 526.224 56.6177 518.512C75.8157 510.799 98.7056 509.733 123.975 516.297L123.565 517.856C98.5415 511.374 76.0618 512.44 57.2741 519.989C38.4863 527.537 23.3084 541.567 12.971 561.013L11.4943 560.274ZM12.3967 560.602L11.9865 559.864L14.3658 558.633L13.1351 561.013L12.3967 560.602ZM472.328 629.44L473.148 629.194L473.394 629.85L472.738 630.178L472.328 629.44ZM470.441 622.22L470.441 621.399L471.097 621.399L471.261 621.974L470.441 622.22ZM12.2326 560.684L12.6429 561.423L10.2636 562.654L11.4943 560.274L12.2326 560.684Z" fill="#DDB685" fill-opacity="0.2"/>
<path d="M36.2873 685.211L36.4104 685.069L36.451 685.022C1.48762 652.954 -8.11794 601.658 12.7588 561.644L12.7577 561.645L12.7546 561.647L12.3737 561.844M36.2873 685.211C36.3025 685.225 36.3177 685.239 36.333 685.253L35.5939 686.106C35.5787 686.092 35.5634 686.078 35.5482 686.064M36.2873 685.211C1.33234 653.155 -8.34526 601.919 12.3737 561.844M36.2873 685.211L35.5482 686.064M35.5482 686.064L35.3844 686.253C0.434791 654.231 -9.59242 603.374 10.2551 562.94L10.3785 562.876L10.6292 562.746M35.5482 686.064C0.592813 654.033 -9.36576 603.123 10.6292 562.746M10.6292 562.746C10.6919 562.62 10.7548 562.493 10.818 562.367L12.4207 561.538L12.4217 561.54L12.4755 561.647C12.4415 561.713 12.4075 561.778 12.3737 561.844M10.6292 562.746L12.3737 561.844M11.1558 560.384L10.0416 562.539L9.68061 563.237L9.88266 563.132C-9.81893 603.623 0.276345 654.429 35.2206 686.442L11.1558 560.384ZM11.1558 560.384L11.1533 560.383L11.2722 560.159L11.2735 560.157L11.3905 559.931L11.3932 559.932M11.1558 560.384L11.3932 559.932M35.927 686.485L35.8037 686.627L35.7632 686.674C64.6213 712.962 100.374 723.181 138.492 725.177L138.492 724.927M35.927 686.485C35.9117 686.471 35.8965 686.457 35.8812 686.443L36.6203 685.59C36.6356 685.604 36.6509 685.618 36.6661 685.632M35.927 686.485C64.7261 712.721 100.413 722.931 138.492 724.927M35.927 686.485L36.6661 685.632M36.6661 685.632L36.8299 685.443C65.4022 711.441 100.808 721.489 138.661 723.463L138.66 723.467L138.492 723.467L138.492 723.704M36.6661 685.632C65.2553 711.643 100.664 721.709 138.492 723.704M138.492 723.704C138.544 723.707 138.596 723.71 138.648 723.712L138.587 724.932C138.556 724.93 138.524 724.928 138.492 724.927M138.492 723.704L138.492 724.927M371.022 676.08L370.941 675.899L370.92 675.852C296.688 706.515 220.329 727.765 139.156 723.562L139.144 723.812M371.022 676.08C371.051 676.068 371.081 676.056 371.111 676.044L371.504 677.054C371.49 677.06 371.476 677.066 371.462 677.071M371.022 676.08C296.771 706.751 220.371 728.018 139.144 723.812M371.022 676.08L371.462 677.071M371.462 677.071L371.564 677.3C297.202 707.989 220.548 729.422 138.992 725.199L138.992 725.198L139.074 725.202L139.087 724.953M371.462 677.071C297.143 707.742 220.558 729.155 139.087 724.953M139.087 724.953C139.055 724.952 139.024 724.95 138.992 724.948L138.992 723.804C139.043 723.806 139.093 723.809 139.144 723.812M139.087 724.953L139.144 723.812M11.3932 559.932C21.9173 540.228 37.3401 525.987 56.5245 518.28C75.7216 510.568 98.5856 509.487 123.804 515.994L123.805 515.993L124.038 516.055L124.038 516.055L124.28 516.118L124.28 516.119C158.924 525.268 192.865 537.738 226.599 550.132C230.906 551.714 235.209 553.295 239.511 554.868L239.511 554.867L239.741 554.952L239.742 554.953L239.976 555.038L239.976 555.039C253.576 560.068 267.094 565.311 280.598 570.548C341.989 594.356 403.109 618.06 470.447 621.149L471.097 621.149L471.286 621.149L471.338 621.331L471.502 621.905L471.57 622.142L471.537 622.152C472.008 624.401 472.623 626.721 473.244 628.904L473.3 628.887L473.382 629.106L473.629 629.762L473.708 629.973L473.506 630.074L472.85 630.402L472.636 630.509L472.616 630.473C462.016 635.451 451.462 640.569 440.904 645.689C418.101 656.747 395.276 667.815 371.921 677.505L371.696 677.598L11.3932 559.932ZM371.993 676.934L372.059 677.101L372.084 677.167C395.342 667.505 418.071 656.484 440.786 645.468C451.32 640.36 461.851 635.254 472.43 630.285L472.318 630.061M371.993 676.934C371.981 676.939 371.968 676.944 371.955 676.949L371.502 675.929C371.531 675.917 371.56 675.905 371.589 675.893M371.993 676.934C395.243 667.276 417.959 656.26 440.669 645.247C451.202 640.139 461.734 635.032 472.318 630.061M371.993 676.934L371.589 675.893M371.589 675.893L371.498 675.66C394.38 666.097 416.677 655.292 439.004 644.472C449.662 639.307 460.326 634.14 471.063 629.102C471.088 629.183 471.113 629.263 471.137 629.343M371.589 675.893C394.479 666.327 416.789 655.515 439.122 644.693C449.767 639.534 460.417 634.373 471.137 629.343M471.137 629.343C471.214 629.308 471.29 629.272 471.366 629.236C471.412 629.387 471.46 629.537 471.508 629.686L472.046 629.516L472.159 629.743M471.137 629.343C471.181 629.484 471.225 629.624 471.27 629.763L471.346 629.999L471.583 629.925L472.159 629.743M472.159 629.743L472.202 629.729L472.373 630.035C472.354 630.044 472.336 630.052 472.318 630.061M472.159 629.743L472.318 630.061M472.415 629.137L472.174 629.214L471.918 628.702C471.785 628.764 471.653 628.825 471.521 628.887C471.497 628.807 471.473 628.726 471.449 628.645M472.415 629.137L472.141 628.59L472.032 628.372L471.812 628.475C471.691 628.532 471.57 628.589 471.449 628.645M472.415 629.137L472.759 629.029M472.415 629.137L472.422 629.151L472.765 629.048C472.763 629.041 472.761 629.035 472.759 629.029M471.449 628.645C470.956 626.976 470.534 625.21 470.123 623.488C470.106 623.418 470.089 623.347 470.072 623.277M471.449 628.645C471.372 628.681 471.296 628.717 471.22 628.753C470.72 627.064 470.293 625.278 469.879 623.544C469.857 623.451 469.834 623.358 469.812 623.265C469.899 623.269 469.986 623.273 470.072 623.277M470.072 623.277C470.164 623.282 470.256 623.286 470.348 623.29L470.596 623.301L470.609 623.053L470.638 622.469M470.072 623.277C470.052 623.193 470.032 623.108 470.012 623.024C470.127 623.03 470.243 623.035 470.359 623.04L470.384 622.533L470.638 622.469M470.638 622.469L471.07 622.361M470.638 622.469L470.64 622.421L471.056 622.296C471.061 622.318 471.065 622.34 471.07 622.361M471.07 622.361C471.54 624.589 472.148 626.878 472.759 629.029M471.07 622.361L471.313 622.301C471.783 624.528 472.391 626.82 473.004 628.976L472.998 628.978L472.991 628.955L472.759 629.029M473.394 629.85L473.228 629.405L473.213 629.41L473.22 629.433L472.996 629.5M473.394 629.85L472.896 630.099L472.893 630.093L472.957 630.057L472.84 629.848M473.394 629.85L473.16 629.938L473.081 629.727M473.394 629.85L473.283 629.627L473.081 629.727M472.84 629.848L472.784 629.876L472.649 629.605L472.697 629.59M472.84 629.848L472.697 629.59M472.84 629.848L473.081 629.727M472.697 629.59L472.689 629.575L472.989 629.48L472.996 629.5M472.697 629.59L472.996 629.5M472.996 629.5L473.081 629.727M470.157 622.074L470.144 622.335L469.621 622.466C469.644 622.563 469.668 622.661 469.691 622.759C469.604 622.755 469.518 622.751 469.431 622.746M470.157 622.074L469.56 622.223L469.319 622.284L469.378 622.525C469.395 622.598 469.413 622.672 469.431 622.746M470.157 622.074L470.179 621.637M470.157 622.074L470.191 622.066L470.191 621.638C470.187 621.638 470.183 621.638 470.179 621.637M469.431 622.746C402.054 619.478 340.93 595.726 279.776 571.962C266.35 566.745 252.923 561.528 239.428 556.526M469.431 622.746C469.451 622.831 469.471 622.915 469.492 623C402.041 619.743 340.85 595.964 279.672 572.19C266.25 566.975 252.828 561.759 239.342 556.761L239.428 556.526M239.428 556.526L239.803 555.508M239.428 556.526C239.421 556.523 239.413 556.521 239.406 556.518L239.799 555.507C239.8 555.507 239.802 555.508 239.803 555.508M239.803 555.508C253.386 560.531 266.893 565.77 280.39 571.004C341.71 594.786 402.848 618.498 470.179 621.637M239.803 555.508L239.888 555.278L239.889 555.274C253.481 560.3 266.993 565.54 280.494 570.776C341.812 594.557 402.905 618.25 470.191 621.388L470.191 621.399L470.179 621.637M11.9917 559.874C11.9847 559.887 11.9777 559.9 11.9708 559.913L12.0034 559.897L11.9917 559.874ZM13.2029 561.336C13.1826 561.375 13.1623 561.413 13.142 561.452L13.1424 561.453L13.1413 561.453C-7.93604 601.493 1.68782 652.984 36.8498 685.048L37.0299 685.212L36.9937 685.254L13.2029 561.336Z" stroke="#DDB685" stroke-opacity="0.2" stroke-width="0.5"/>
</g>
<mask id="mask4_9_9" style="mask-type:luminance" maskUnits="userSpaceOnUse" x="506" y="251" width="248" height="243">
<path d="M588.973 296.814L588.973 296.814C604.012 280.541 623.976 266.739 644.183 257.21L644.184 257.21C661.283 249.299 682.929 249.986 702.372 256.43C721.814 262.873 739.105 275.089 747.472 290.299L747.472 290.3C754.239 302.678 754.549 315.236 748.194 327.864C741.848 340.475 728.862 353.14 709.074 365.786L709.073 365.786C658.427 398.024 607.498 429.84 556.68 461.587C540.241 471.857 523.814 482.12 507.411 492.387L507.028 492.626L507.028 492.175C507.028 491.949 506.97 491.478 506.884 490.796L506.88 490.764C506.796 490.097 506.69 489.254 506.599 488.302C506.413 486.367 506.289 483.968 506.537 481.646L506.538 481.638C516.307 412.517 540.854 349.042 588.973 296.814Z" fill="white" stroke="white" stroke-width="0.5"/>
</mask>
<g mask="url(#mask4_9_9)">
<path d="M505.965 481.673C515.729 412.343 540.341 348.756 588.5 296.409L589.731 297.558C541.818 349.576 517.369 412.835 507.606 481.919L505.965 481.673ZM506.458 492.257C506.458 492.093 506.376 491.683 506.294 490.944C506.212 490.288 506.13 489.385 506.047 488.401C505.883 486.432 505.719 483.97 506.047 481.673L507.688 481.837C507.442 484.052 507.524 486.35 507.77 488.237C507.852 489.221 507.935 490.042 508.017 490.698C508.099 491.355 508.181 491.847 508.181 492.175L506.458 492.257ZM709.349 366.314C642.32 408.979 574.799 450.905 507.688 492.914L506.786 491.519C573.897 449.51 641.418 407.584 708.447 364.919L709.349 366.314ZM747.991 290.092C754.801 302.645 755.129 315.362 748.73 328.162C742.33 340.879 729.204 353.678 709.431 366.314L708.529 364.919C728.219 352.284 741.018 339.73 747.253 327.341C753.406 315.034 753.16 302.891 746.597 290.748L747.991 290.092ZM643.961 256.698C661.19 248.74 683.014 249.396 702.54 255.878C722.066 262.359 739.541 274.667 747.991 290.009L746.515 290.83C738.31 275.897 721.327 263.836 702.047 257.437C682.767 251.037 661.436 250.381 644.7 258.175L643.961 256.698ZM588.5 296.409C603.596 280.082 623.615 266.216 643.961 256.698L644.618 258.175C624.435 267.611 604.663 281.313 589.731 297.476L588.5 296.409ZM507.278 492.257L507.688 492.914L506.458 493.652L506.458 492.175L507.278 492.257Z" fill="#DDB685" fill-opacity="0.2"/>
<path d="M505.765 481.896L505.683 481.883L505.718 481.638C515.474 412.354 540.056 348.786 588.142 296.43L588.142 296.429L588.316 296.241C588.316 296.241 588.316 296.24 588.316 296.24L588.317 296.24L588.487 296.055L588.488 296.055C603.531 279.843 623.408 266.071 643.623 256.581L643.622 256.579L643.855 256.472L643.856 256.471L644.086 256.364L644.087 256.365C661.354 248.484 683.138 249.174 702.618 255.64C722.183 262.135 739.72 274.474 748.21 289.889L748.331 290.107L748.295 290.127C755.061 302.7 755.364 315.452 748.953 328.273L748.953 328.274C742.525 341.049 729.355 353.879 709.566 366.525L709.356 366.658L709.332 366.621C658.735 398.825 607.858 430.61 557.09 462.326C540.722 472.551 524.365 482.77 508.033 492.993L508.035 492.997L507.821 493.125L507.817 493.128L507.612 493.256L507.61 493.252L506.586 493.866L506.208 494.094L506.208 493.652L506.208 492.519L506.208 492.257C506.208 492.198 506.191 492.078 506.159 491.851L506.159 491.851C506.128 491.635 506.087 491.346 506.045 490.974C505.963 490.312 505.88 489.405 505.798 488.422C505.64 486.525 505.48 484.149 505.765 481.896ZM708.545 364.611C728.133 352.019 740.839 339.528 747.03 327.229C753.103 315.08 752.905 303.106 746.511 291.118L746.416 291.17L746.296 290.95C738.131 276.09 721.21 264.061 701.969 257.674C682.729 251.287 661.467 250.642 644.805 258.402L644.585 258.504L644.569 258.474C624.523 267.868 604.896 281.472 590.043 297.507L590.083 297.545L589.915 297.727C542.125 349.613 517.694 412.695 507.903 481.607L507.965 481.614L507.937 481.865C507.693 484.057 507.774 486.334 508.018 488.204L508.019 488.204L508.02 488.216C508.088 489.033 508.156 489.736 508.223 490.324C524.105 480.384 540.008 470.449 555.923 460.507C606.741 428.759 657.667 396.945 708.313 364.708L708.522 364.575L708.545 364.611Z" stroke="#DDB685" stroke-opacity="0.2" stroke-width="0.5"/>
</g>
</svg>
