<svg width="704" height="546" viewBox="0 0 704 546" fill="none" xmlns="http://www.w3.org/2000/svg">
<mask id="mask0_12_66" style="mask-type:alpha" maskUnits="userSpaceOnUse" x="0" y="0" width="704" height="547">
<rect width="704" height="547" fill="url(#paint0_linear_12_66)"/>
</mask>
<g mask="url(#mask0_12_66)">
<path d="M524.749 591.324C501.285 603.139 470.437 593.048 458.623 569.664L460.1 568.925C471.504 591.489 501.367 601.252 524.011 589.848L524.749 591.324ZM545.834 525.522C558.059 549.644 548.542 579.263 524.749 591.324L524.011 589.848C546.983 578.197 556.172 549.562 544.358 526.261L545.834 525.522ZM480.611 504.19C504.895 491.637 533.528 501.072 545.916 525.522L544.44 526.261C532.462 502.631 504.813 493.524 481.349 505.585L480.611 504.19ZM458.623 569.746C446.481 545.788 456.49 516.579 480.528 504.19L481.267 505.667C457.967 517.728 448.368 545.952 460.018 569.008L458.623 569.746Z" fill="#DDB685" fill-opacity="0.2"/>
<path d="M724.031 532.906L723.949 532.824L725.344 531.922L725.426 532.004L724.031 532.906ZM608.269 504.026C643.383 531.183 681.041 540.045 724.523 531.676L724.851 533.317C680.959 541.768 642.727 532.824 607.284 505.338L608.269 504.026ZM583.902 622.174C610.648 586.237 616.227 547.675 606.956 504.846L608.597 504.518C617.95 547.675 612.289 586.73 585.215 623.159L583.902 622.174ZM700.731 650.891C665.781 622.585 627.467 616.267 584.722 623.405L584.476 621.764C627.549 614.544 666.355 620.944 701.797 649.578L700.731 650.891ZM725.262 532.824C699.254 568.761 693.511 606.995 701.961 650.07L700.321 650.399C691.706 606.913 697.531 568.187 723.867 531.84L725.262 532.824ZM724.687 532.496L725.344 532.086L726 533.07L724.851 533.317L724.687 532.496ZM607.776 504.682L606.956 504.846L606.464 502.631L608.269 504.026L607.776 504.682ZM584.558 622.667L584.722 623.487L582.671 623.815L583.902 622.174L584.558 622.667ZM701.223 650.317L702.043 650.153L702.454 652.368L700.731 650.973L701.223 650.317ZM724.605 532.332L723.949 531.84L724.687 530.855L725.344 531.922L724.605 532.332Z" fill="#DDB685" fill-opacity="0.2"/>
<mask id="mask1_12_66" style="mask-type:luminance" maskUnits="userSpaceOnUse" x="285" y="13" width="159" height="414">
<path d="M368.541 425.053L368.435 425.734L368.08 425.143C302.597 316.245 260.217 203.511 303.654 75.1649L303.654 75.1638C307.193 64.8765 313.115 54.7606 319.774 46.2107L319.775 46.2084C338.598 22.6167 362.48 8.34914 393.866 15.6812L393.868 15.6817C423.918 23.0093 442.214 45.6646 443.121 74.1705L443.122 74.2151L443.108 74.2575L443.04 74.4613C444.021 105.892 440.9 139.466 430.225 168.865C402.171 246.224 380.272 324.558 371.742 406.332C371.454 409.503 370.898 412.61 370.293 415.709C370.156 416.408 370.017 417.107 369.878 417.806C369.4 420.207 368.921 422.611 368.541 425.053Z" fill="white" stroke="white" stroke-width="0.5"/>
</mask>
<g mask="url(#mask1_12_66)">
<path d="M443.445 73.8502L443.527 74.0143L442.051 74.7527L441.969 74.5886L443.445 73.8502ZM393.892 15.1861C424.247 22.5704 442.625 45.4617 443.527 74.1784L441.887 74.2604C440.984 46.2822 423.099 23.9652 393.481 16.8271L393.892 15.1861ZM319.233 45.872C338.185 22.1602 362.223 7.71979 393.892 15.1861L393.481 16.745C362.715 9.52484 339.251 23.4729 320.545 46.8565L319.233 45.872ZM303.07 74.9989C306.68 64.6609 312.587 54.487 319.233 45.872L320.545 46.8565C313.982 55.3074 308.157 65.3173 304.629 75.4912L303.07 74.9989ZM367.556 425.424C302.004 316.547 259.588 203.568 303.07 74.9989L304.629 75.4912C261.311 203.403 303.563 315.809 369.033 424.604L367.556 425.424ZM372.314 406.389C371.74 412.707 370.099 419.025 369.115 425.178L367.474 424.932C368.54 418.532 370.099 412.543 370.674 406.225L372.314 406.389ZM430.811 169.025C402.834 246.396 380.847 324.67 372.314 406.389L370.674 406.225C379.206 324.342 401.193 245.986 429.252 168.533L430.811 169.025ZM443.609 74.3425C444.676 105.767 441.476 139.488 430.729 169.025L429.17 168.451C439.835 139.16 442.953 105.685 441.887 74.4245L443.609 74.3425ZM442.707 74.1784L441.969 74.5886L441.887 74.4245L441.887 74.2604L442.707 74.1784ZM368.294 425.014L369.115 425.178L368.787 427.394L367.638 425.506L368.294 425.014ZM442.789 74.4245L443.527 74.0143L443.609 74.1784L443.609 74.3425L442.789 74.4245Z" fill="#DDB685" fill-opacity="0.2"/>
<path d="M443.618 74.5929C444.656 105.854 441.467 139.37 430.823 168.767L443.618 74.5929ZM443.618 74.5929L443.369 74.6178M394.198 15.0038C424.43 22.4575 442.775 45.2923 443.77 73.9398L443.833 74.0666L443.84 74.0812L443.851 74.0807L443.851 74.1035L443.859 74.1194L443.863 74.1261L443.859 74.1278L443.859 74.1784L443.859 74.338C444.923 105.686 441.745 139.331 431.061 168.842L431.134 168.865L431.046 169.11C403.073 246.47 381.093 324.722 372.563 406.414C372.275 409.585 371.719 412.753 371.114 415.893C370.955 416.717 370.793 417.538 370.631 418.358C370.176 420.664 369.724 422.951 369.362 425.217C369.362 425.217 369.362 425.217 369.362 425.218L369.034 427.43L368.933 428.114L368.573 427.524L367.491 425.746L367.466 425.76L367.342 425.553C301.818 316.723 259.368 203.735 302.752 75.1605L302.749 75.1597L302.834 74.9188L302.834 74.9165L302.912 74.6867L302.915 74.6875C306.514 64.4788 312.334 54.4455 318.88 45.9201L318.877 45.9173L319.035 45.7193L319.037 45.7159L319.185 45.524L319.189 45.5266C338.105 21.9433 362.115 7.53908 393.709 14.8866L393.709 14.8845L393.949 14.9428L393.951 14.9432L394.199 15.0017L394.198 15.0038Z" stroke="#DDB685" stroke-opacity="0.2" stroke-width="0.5"/>
</g>
<mask id="mask2_12_66" style="mask-type:luminance" maskUnits="userSpaceOnUse" x="20" y="253" width="375" height="320">
<path d="M64.9188 455.74L64.918 455.739C19.5139 423 8.84057 355.577 35.3909 306.419C53.736 272.4 89.3915 254.498 125.891 253.326C162.391 252.155 199.768 267.713 221.564 300.656L221.564 300.657C232.572 317.415 241.276 336.304 248.499 355.02L248.499 355.021C280.003 437.807 315.342 518.063 392.885 571.51L393.468 571.911L392.761 571.965C369.876 573.691 333.256 569.295 294.72 560.894C256.18 552.492 215.693 540.077 185.069 525.749L184.971 525.704L184.938 525.602L184.889 525.457C143.07 505.77 102.315 482.476 64.9188 455.74Z" fill="white" stroke="white" stroke-width="0.5"/>
</mask>
<g mask="url(#mask2_12_66)">
<path d="M184.436 525.851L184.354 525.687L185.831 524.949L185.913 525.113L184.436 525.851ZM392.825 572.536C369.853 574.259 333.18 569.829 294.62 561.46C256.06 553.009 215.531 540.62 184.847 526.262L185.585 524.785C216.105 539.061 256.47 551.45 294.948 559.901C333.426 568.27 369.935 572.7 392.661 570.977L392.825 572.536ZM249.004 354.782C280.59 437.568 315.787 517.646 393.153 571.059L392.25 572.372C314.392 518.713 279.032 438.142 247.445 355.356L249.004 354.782ZM222.012 300.302C233.006 317.122 241.784 336.075 249.004 354.782L247.445 355.356C240.225 336.649 231.529 317.86 220.617 301.205L222.012 300.302ZM34.9547 306.128C53.4143 271.914 89.2669 253.863 125.94 252.715C162.613 251.566 200.189 267.155 222.094 300.302L220.699 301.205C199.122 268.632 162.121 253.207 125.94 254.356C89.7592 255.504 54.4808 273.309 36.3494 306.866L34.9547 306.128ZM64.5721 456.193C18.9564 423.21 8.2908 355.521 34.9547 306.128L36.4314 306.866C10.0957 355.685 20.6792 422.471 65.6386 454.88L64.5721 456.193ZM184.765 526.015C142.923 506.324 102.066 483.023 64.6541 456.193L65.6386 454.88C102.968 481.628 143.743 504.929 185.503 524.539L184.765 526.015ZM185.175 525.441L184.847 526.18L184.6 526.097L184.436 525.851L185.175 525.441ZM392.743 571.716L393.235 571.059L395.122 572.372L392.825 572.536L392.743 571.716ZM185.093 525.277L185.421 524.539L185.667 524.621L185.831 524.867L185.093 525.277Z" fill="#DDB685" fill-opacity="0.2"/>
<path d="M64.6479 456.496C101.916 483.208 142.596 506.421 184.258 526.053L184.325 526.187L184.351 526.174L184.392 526.236L184.44 526.307L184.521 526.335L184.529 526.337L184.508 526.379L184.741 526.488C215.447 540.857 255.995 553.251 294.566 561.704L294.567 561.704C333.133 570.074 369.835 574.511 392.843 572.786L392.844 572.785L395.14 572.622L395.846 572.571L395.265 572.167L393.378 570.854L393.18 570.716L393.151 570.754C316.028 517.44 280.871 437.58 249.328 354.929L249.329 354.929L249.238 354.694C249.238 354.694 249.238 354.693 249.238 354.693L249.237 354.692L249.149 354.462L249.148 354.462C241.977 335.912 233.269 317.122 222.383 300.413L222.442 300.375L222.303 300.164C200.342 266.934 162.678 251.314 125.932 252.465C89.2623 253.613 53.3927 271.629 34.85 305.796L34.8498 305.796L34.7575 305.967L64.6479 456.496ZM64.6479 456.496L64.6171 456.534L64.4256 456.396C18.7618 423.378 8.05223 355.698 34.6152 306.231L34.615 306.231L34.7106 306.054C34.718 306.04 34.7255 306.026 34.733 306.012C34.7335 306.011 34.7341 306.01 34.7346 306.009L64.6479 456.496ZM36.7099 306.726C54.8332 273.427 89.9332 255.749 125.948 254.606C161.964 253.462 198.781 268.775 220.326 301.095L220.27 301.132L220.408 301.342C231.306 317.977 239.995 336.747 247.211 355.444L36.7099 306.726ZM36.7099 306.726L36.7739 306.758L36.6515 306.985C10.3662 355.71 20.9422 422.353 65.7848 454.677M36.7099 306.726L65.7848 454.677M65.7848 454.677C103.1 481.415 143.862 504.709 185.609 524.312L185.796 524.4L185.827 524.411L185.832 524.417L185.841 524.421L185.838 524.427L185.875 524.482L186.032 524.718C216.489 538.916 256.677 551.24 295.001 559.657C295.001 559.657 295.001 559.657 295.001 559.657L294.948 559.901C331.984 567.956 367.196 572.363 390.049 571.145C389.938 571.068 389.828 570.99 389.717 570.912L65.7848 454.677Z" stroke="#DDB685" stroke-opacity="0.2" stroke-width="0.5"/>
</g>
<mask id="mask3_12_66" style="mask-type:luminance" maskUnits="userSpaceOnUse" x="-85" y="525" width="473" height="214">
<path d="M-73.187 574.174L-73.3531 574.257L-72.9883 573.568C-62.5846 553.911 -47.2201 539.693 -28.1575 532.039C-9.09625 524.385 13.6445 523.301 38.7919 529.875L38.7925 529.876C72.6825 538.828 105.957 550.979 139.084 563.076C144.224 564.953 149.36 566.829 154.494 568.691L154.496 568.691C168.113 573.73 181.656 578.986 195.193 584.24C256.63 608.087 317.927 631.879 385.452 634.97L385.646 634.979L385.686 635.169C386.176 637.541 386.83 640.075 387.565 642.279L387.635 642.49L387.434 642.585C376.493 647.709 365.618 652.982 354.746 658.254C332.206 669.183 309.677 680.107 286.593 689.685L286.593 689.685C212.164 720.459 135.414 741.888 53.8114 737.619C15.626 735.648 -20.1259 725.463 -48.9796 699.074C-84.5459 666.694 -94.3473 614.713 -73.187 574.174Z" fill="white" stroke="white" stroke-width="0.5"/>
</mask>
<g mask="url(#mask3_12_66)">
<path d="M-72.1931 574.341L-72.3572 574.423L-73.0956 572.946L-72.9315 572.864L-72.1931 574.341ZM-49.3853 699.463C-85.3199 666.726 -95.083 614.134 -73.3417 573.192L-71.8649 573.93C-93.2781 614.134 -83.6791 665.988 -48.3187 698.233L-49.3853 699.463ZM53.7424 738.19C15.4284 736.221 -20.5062 725.965 -49.4673 699.463L-48.4007 698.233C-19.7679 724.406 15.7566 734.498 53.7424 736.467L53.7424 738.19ZM286.826 690.192C212.331 720.959 135.539 742.456 53.8244 738.19L53.9065 736.549C135.293 740.815 211.839 719.483 286.251 688.715L286.826 690.192ZM387.656 643.178C354.101 658.931 321.037 676.079 286.826 690.274L286.169 688.797C320.381 674.52 353.28 657.454 386.918 641.701L387.656 643.178ZM386.261 635.055C386.754 637.435 387.41 639.896 388.066 642.194L386.507 642.686C385.769 640.389 385.195 637.845 384.62 635.466L386.261 635.055ZM154.655 568.187C230.134 596.083 303.152 630.625 385.441 634.399L385.359 636.04C302.66 632.266 229.396 597.56 154.081 569.664L154.655 568.187ZM38.9747 529.296C78.1911 539.634 116.505 554.239 154.655 568.187L154.081 569.746C115.849 555.798 77.6168 541.193 38.4824 530.937L38.9747 529.296ZM-73.5058 573.274C-63.0043 553.501 -47.5803 539.224 -28.3823 531.512C-9.18435 523.799 13.7056 522.733 38.9747 529.296L38.5645 530.855C13.5415 524.374 -8.93822 525.44 -27.726 532.989C-46.5138 540.537 -61.6917 554.567 -72.029 574.012L-73.5058 573.274ZM-72.6033 573.602L-73.0135 572.864L-70.6343 571.633L-71.8649 574.012L-72.6033 573.602ZM387.328 642.44L388.148 642.194L388.394 642.85L387.738 643.178L387.328 642.44ZM385.441 635.22L385.441 634.399L386.097 634.399L386.261 634.973L385.441 635.22ZM-72.7674 573.684L-72.3572 574.423L-74.7364 575.653L-73.5058 573.274L-72.7674 573.684Z" fill="#DDB685" fill-opacity="0.2"/>
<path d="M-48.7128 698.211L-48.5897 698.069L-48.549 698.022C-83.5124 665.953 -93.118 614.658 -72.2412 574.644L-72.2423 574.645L-72.2454 574.646L-72.6264 574.843M-48.7128 698.211C-48.6976 698.225 -48.6823 698.239 -48.6671 698.253L-49.4061 699.106C-49.4214 699.092 -49.4366 699.078 -49.4519 699.064M-48.7128 698.211C-83.6677 666.154 -93.3453 614.919 -72.6264 574.843M-48.7128 698.211L-49.4519 699.064M-49.4519 699.064L-49.6157 699.253C-84.5653 667.231 -94.5925 616.373 -74.745 575.939L-74.6216 575.875L-74.3708 575.746M-49.4519 699.064C-84.4072 667.032 -94.3658 616.122 -74.3708 575.746M-74.3708 575.746C-74.3082 575.619 -74.2453 575.493 -74.182 575.367L-72.5794 574.538L-72.5784 574.539L-72.5246 574.647C-72.5586 574.712 -72.5925 574.778 -72.6264 574.843M-74.3708 575.746L-72.6264 574.843M-73.8443 573.384L-74.9585 575.539L-75.3195 576.236L-75.1174 576.132C-94.819 616.623 -84.7237 667.429 -49.7795 699.442L-73.8443 573.384ZM-73.8443 573.384L-73.8468 573.383L-73.7279 573.159L-73.7266 573.157L-73.6095 572.93L-73.6068 572.932M-73.8443 573.384L-73.6068 572.932M-49.073 699.485L-49.1963 699.627L-49.2368 699.674C-20.3788 725.961 15.3737 736.181 53.4924 738.177L53.4924 737.926M-49.073 699.485C-49.0883 699.471 -49.1036 699.457 -49.1189 699.443L-48.3798 698.59C-48.3645 698.604 -48.3492 698.618 -48.3339 698.632M-49.073 699.485C-20.274 725.721 15.4125 735.931 53.4924 737.926M-49.073 699.485L-48.3339 698.632M-48.3339 698.632L-48.1701 698.443C-19.5978 724.441 15.8075 734.488 53.6605 736.462L53.6602 736.467L53.4924 736.467L53.4924 736.704M-48.3339 698.632C-19.7448 724.643 15.6642 734.709 53.4924 736.704M53.4924 736.704C53.5442 736.707 53.5961 736.709 53.648 736.712L53.587 737.931C53.5555 737.93 53.5239 737.928 53.4924 737.926M53.4924 736.704L53.4924 737.926M286.022 689.08L285.941 688.898L285.92 688.852C211.688 719.514 135.329 740.765 54.1561 736.562L54.1436 736.811M286.022 689.08C286.051 689.068 286.081 689.056 286.111 689.043L286.504 690.054C286.49 690.06 286.476 690.065 286.462 690.071M286.022 689.08C211.771 719.751 135.37 741.018 54.1436 736.811M286.022 689.08L286.462 690.071M286.462 690.071L286.564 690.3C212.202 720.989 135.548 742.422 53.9924 738.198L53.9924 738.198L54.0741 738.202L54.0866 737.953M286.462 690.071C212.143 720.742 135.558 742.155 54.0866 737.953M54.0866 737.953C54.0552 737.951 54.0238 737.95 53.9924 737.948L53.9924 736.804C54.0428 736.806 54.0932 736.809 54.1436 736.811M54.0866 737.953L54.1436 736.811M-73.6068 572.932C-63.0828 553.227 -47.66 538.987 -28.4755 531.28C-9.27847 523.568 13.5855 522.486 38.8044 528.994L38.8047 528.993L39.0375 529.054L39.0384 529.055L39.2803 529.117L39.28 529.118C73.9242 538.267 107.865 550.737 141.599 563.132C145.906 564.714 150.209 566.295 154.511 567.868L154.511 567.867L154.741 567.952L154.742 567.952L154.976 568.038L154.976 568.039C168.576 573.068 182.094 578.311 195.598 583.548C256.988 607.356 318.109 631.059 385.447 634.149L386.097 634.149L386.286 634.149L386.338 634.33L386.502 634.905L386.57 635.142L386.537 635.152C387.008 637.401 387.623 639.72 388.244 641.904L388.3 641.887L388.382 642.106L388.629 642.762L388.708 642.973L388.506 643.074L387.85 643.402L387.636 643.509L387.616 643.473C377.016 648.451 366.462 653.569 355.904 658.689C333.1 669.747 310.276 680.815 286.921 690.505L286.696 690.598L-73.6068 572.932ZM286.993 689.933L287.059 690.101L287.084 690.166C310.342 680.505 333.071 669.483 355.786 658.468C366.32 653.36 376.85 648.253 387.43 643.284L387.318 643.061M286.993 689.933C286.981 689.939 286.968 689.944 286.955 689.949L286.502 688.929C286.531 688.917 286.56 688.905 286.589 688.893M286.993 689.933C310.243 680.275 332.959 669.26 355.669 658.247C366.202 653.139 376.734 648.032 387.318 643.061M286.993 689.933L286.589 688.893M286.589 688.893L286.498 688.659C309.38 679.097 331.677 668.291 354.004 657.472C364.662 652.307 375.326 647.139 386.063 642.102C386.088 642.182 386.113 642.263 386.137 642.343M286.589 688.893C309.479 679.327 331.789 668.515 354.122 657.693C364.767 652.534 375.417 647.373 386.137 642.343M386.137 642.343C386.213 642.307 386.29 642.272 386.366 642.236C386.412 642.387 386.46 642.537 386.507 642.686L387.045 642.516L387.159 642.742M386.137 642.343C386.181 642.484 386.225 642.624 386.269 642.762L386.346 642.999L386.583 642.924L387.159 642.742M387.159 642.742L387.202 642.729L387.373 643.035C387.354 643.044 387.336 643.052 387.318 643.061M387.159 642.742L387.318 643.061M387.415 642.137L387.174 642.213L386.918 641.701C386.785 641.763 386.653 641.825 386.521 641.887C386.497 641.807 386.473 641.726 386.449 641.645M387.415 642.137L387.141 641.59L387.032 641.372L386.812 641.475C386.691 641.532 386.57 641.588 386.449 641.645M387.415 642.137L387.759 642.028M387.415 642.137L387.422 642.151L387.765 642.048C387.763 642.041 387.761 642.035 387.759 642.028M386.449 641.645C385.956 639.976 385.534 638.21 385.123 636.488C385.106 636.417 385.089 636.347 385.072 636.277M386.449 641.645C386.372 641.681 386.296 641.717 386.22 641.752C385.72 640.064 385.293 638.277 384.879 636.544C384.857 636.45 384.834 636.358 384.812 636.265C384.899 636.269 384.986 636.273 385.072 636.277M385.072 636.277C385.164 636.281 385.256 636.286 385.347 636.29L385.596 636.301L385.609 636.053L385.638 635.469M385.072 636.277C385.052 636.193 385.032 636.108 385.012 636.024C385.127 636.029 385.243 636.035 385.359 636.04L385.384 635.532L385.638 635.469M385.638 635.469L386.07 635.361M385.638 635.469L385.64 635.421L386.056 635.296C386.061 635.318 386.065 635.339 386.07 635.361M386.07 635.361C386.54 637.589 387.148 639.878 387.759 642.028M386.07 635.361L386.313 635.3C386.783 637.528 387.391 639.82 388.004 641.976L387.998 641.978L387.991 641.955L387.759 642.028M388.394 642.85L388.228 642.405L388.213 642.409L388.22 642.433L387.996 642.5M388.394 642.85L387.896 643.099L387.893 643.092L387.957 643.057L387.84 642.848M388.394 642.85L388.16 642.938L388.081 642.727M388.394 642.85L388.283 642.626L388.081 642.727M387.84 642.848L387.784 642.876L387.649 642.604L387.697 642.59M387.84 642.848L387.697 642.59M387.84 642.848L388.081 642.727M387.697 642.59L387.689 642.575L387.989 642.48L387.996 642.5M387.697 642.59L387.996 642.5M387.996 642.5L388.081 642.727M385.157 635.074L385.144 635.335L384.62 635.466C384.644 635.563 384.667 635.661 384.691 635.759C384.604 635.754 384.518 635.75 384.431 635.746M385.157 635.074L384.56 635.223L384.319 635.283L384.377 635.524C384.395 635.598 384.413 635.672 384.431 635.746M385.157 635.074L385.179 634.637M385.157 635.074L385.191 635.065L385.191 634.638C385.187 634.638 385.183 634.637 385.179 634.637M384.431 635.746C317.054 632.478 255.93 608.726 194.776 584.962C181.35 579.745 167.923 574.527 154.428 569.526M384.431 635.746C384.451 635.83 384.471 635.915 384.492 635.999C317.041 632.742 255.85 608.964 194.672 585.19C181.25 579.974 167.828 574.759 154.342 569.76L154.428 569.526M154.428 569.526L154.803 568.508M154.428 569.526C154.421 569.523 154.413 569.52 154.406 569.518L154.799 568.507C154.8 568.507 154.802 568.508 154.803 568.508M154.803 568.508C168.386 573.531 181.892 578.769 195.39 584.004C256.71 607.786 317.848 631.497 385.179 634.637M154.803 568.508L154.888 568.277L154.889 568.274C168.481 573.3 181.993 578.54 195.494 583.776C256.812 607.557 317.905 631.25 385.191 634.388L385.191 634.399L385.179 634.637M-73.0084 572.874C-73.0153 572.887 -73.0223 572.9 -73.0293 572.913L-72.9967 572.896L-73.0084 572.874ZM-71.7971 574.336C-71.8175 574.375 -71.8378 574.413 -71.8581 574.452L-71.8577 574.452L-71.8588 574.453C-92.9361 614.493 -83.3122 665.984 -48.1503 698.048L-47.9701 698.212L-48.0064 698.254L-71.7971 574.336Z" stroke="#DDB685" stroke-opacity="0.2" stroke-width="0.5"/>
</g>
<mask id="mask4_12_66" style="mask-type:luminance" maskUnits="userSpaceOnUse" x="421" y="264" width="248" height="243">
<path d="M503.973 309.814L503.973 309.814C519.012 293.541 538.976 279.74 559.183 270.211L559.184 270.21C576.283 262.299 597.929 262.986 617.372 269.43C636.814 275.873 654.105 288.089 662.472 303.299L662.472 303.3C669.239 315.678 669.549 328.236 663.194 340.864C656.848 353.475 643.862 366.14 624.074 378.786L624.073 378.786C573.426 411.024 522.498 442.84 471.68 474.587C455.241 484.857 438.813 495.12 422.411 505.387L422.028 505.627L422.028 505.175C422.028 504.949 421.97 504.478 421.884 503.796L421.88 503.764C421.796 503.097 421.69 502.254 421.599 501.302C421.413 499.367 421.289 496.968 421.537 494.646L421.538 494.638C431.307 425.517 455.854 362.043 503.973 309.814Z" fill="white" stroke="white" stroke-width="0.5"/>
</mask>
<g mask="url(#mask4_12_66)">
<path d="M420.965 494.673C430.728 425.343 455.341 361.756 503.5 309.41L504.731 310.558C456.818 362.576 432.369 425.835 422.606 494.919L420.965 494.673ZM421.458 505.257C421.458 505.093 421.376 504.683 421.294 503.945C421.212 503.288 421.129 502.386 421.047 501.401C420.883 499.432 420.719 496.971 421.047 494.673L422.688 494.837C422.442 497.053 422.524 499.35 422.77 501.237C422.852 502.222 422.934 503.042 423.016 503.698C423.099 504.355 423.181 504.847 423.181 505.175L421.458 505.257ZM624.349 379.314C557.32 421.979 489.799 463.905 422.688 505.914L421.786 504.519C488.897 462.51 556.418 420.584 623.447 377.919L624.349 379.314ZM662.991 303.092C669.801 315.645 670.129 328.362 663.73 341.162C657.33 353.879 644.204 366.679 624.431 379.314L623.529 377.919C643.219 365.284 656.018 352.731 662.253 340.341C668.406 328.034 668.16 315.891 661.597 303.748L662.991 303.092ZM558.961 269.698C576.19 261.74 598.013 262.396 617.54 268.878C637.066 275.36 654.541 287.667 662.991 303.01L661.515 303.83C653.31 288.898 636.327 276.837 617.047 270.437C597.767 264.037 576.436 263.381 559.7 271.175L558.961 269.698ZM503.5 309.41C518.596 293.082 538.615 279.216 558.961 269.698L559.618 271.175C539.435 280.611 519.663 294.313 504.731 310.476L503.5 309.41ZM422.278 505.257L422.688 505.914L421.458 506.652L421.458 505.175L422.278 505.257Z" fill="#DDB685" fill-opacity="0.2"/>
<path d="M420.765 494.896L420.683 494.884L420.718 494.638C430.474 425.354 455.056 361.786 503.142 309.43L503.142 309.429L503.316 309.241C503.316 309.241 503.316 309.241 503.316 309.24L503.317 309.24L503.487 309.055L503.487 309.056C518.531 292.843 538.408 279.071 558.623 269.581L558.622 269.58L558.855 269.472L558.856 269.472L559.086 269.364L559.087 269.366C576.354 261.485 598.138 262.174 617.618 268.641C637.183 275.135 654.72 287.474 663.21 302.889L663.33 303.107L663.295 303.127C670.061 315.701 670.364 328.452 663.953 341.274L663.953 341.274C657.525 354.05 644.355 366.879 624.566 379.525L624.356 379.659L624.332 379.621C573.735 411.826 522.858 443.61 472.09 475.326C455.722 485.552 439.365 495.77 423.033 505.993L423.035 505.997L422.821 506.126L422.817 506.128L422.612 506.256L422.61 506.253L421.586 506.867L421.208 507.094L421.208 506.652L421.208 505.52L421.208 505.257C421.208 505.198 421.191 505.078 421.159 504.852L421.159 504.851C421.128 504.636 421.087 504.346 421.045 503.974C420.963 503.312 420.88 502.406 420.798 501.422C420.64 499.526 420.48 497.149 420.765 494.896ZM623.545 377.612C643.133 365.02 655.839 352.529 662.03 340.229C668.103 328.081 667.905 316.106 661.511 304.118L661.416 304.171L661.295 303.951C653.131 289.09 636.21 277.061 616.969 270.674C597.729 264.288 576.467 263.642 559.805 271.402L559.585 271.505L559.569 271.474C539.523 280.868 519.896 294.472 505.043 310.507L505.083 310.545L504.915 310.728C457.124 362.613 432.694 425.696 422.903 494.608L422.965 494.614L422.937 494.865C422.693 497.057 422.774 499.334 423.018 501.205L423.019 501.205L423.02 501.216C423.088 502.034 423.156 502.736 423.223 503.324C439.105 493.385 455.008 483.449 470.922 473.507C521.741 441.759 572.667 409.945 623.312 377.708L623.522 377.575L623.545 377.612Z" stroke="#DDB685" stroke-opacity="0.2" stroke-width="0.5"/>
</g>
</g>
<defs>
<linearGradient id="paint0_linear_12_66" x1="-13.9333" y1="29.5918" x2="754.805" y2="409.228" gradientUnits="userSpaceOnUse">
<stop stop-color="#4C382A"/>
<stop offset="1" stop-color="#47413D"/>
</linearGradient>
</defs>
</svg>
