<svg width="605" height="900" viewBox="0 0 605 900" fill="none" xmlns="http://www.w3.org/2000/svg">
<mask id="mask0_12_17" style="mask-type:alpha" maskUnits="userSpaceOnUse" x="0" y="0" width="605" height="900">
<rect width="605" height="900" fill="#2B2724"/>
</mask>
<g mask="url(#mask0_12_17)">
<path d="M332.604 688.818C305.136 702.648 269.026 690.835 255.196 663.462L256.925 662.598C270.274 689.01 305.232 700.439 331.739 687.089L332.604 688.818ZM357.286 611.79C371.596 640.027 360.455 674.699 332.604 688.818L331.739 687.089C358.63 673.451 369.387 639.931 355.557 612.654L357.286 611.79ZM280.935 586.818C309.362 572.123 342.88 583.168 357.382 611.79L355.653 612.654C341.631 584.993 309.266 574.332 281.799 588.451L280.935 586.818ZM255.196 663.558C240.982 635.513 252.699 601.321 280.838 586.818L281.703 588.547C254.428 602.665 243.191 635.705 256.829 662.694L255.196 663.558Z" fill="#5A4535" fill-opacity="0.5"/>
<path d="M565.883 620.434L565.787 620.337L567.42 619.281L567.516 619.377L565.883 620.434ZM430.372 586.626C471.476 618.417 515.558 628.79 566.459 618.993L566.844 620.914C515.462 630.806 470.708 620.338 429.219 588.162L430.372 586.626ZM401.848 724.931C433.157 682.863 439.687 637.722 428.835 587.586L430.756 587.202C441.704 637.722 435.078 683.439 403.385 726.083L401.848 724.931ZM538.608 758.547C497.695 725.411 452.845 718.015 402.808 726.371L402.52 724.451C452.941 715.999 498.367 723.49 539.856 757.01L538.608 758.547ZM567.324 620.337C536.879 662.405 530.156 707.162 540.049 757.586L538.128 757.97C528.044 707.066 534.862 661.733 565.691 619.185L567.324 620.337ZM566.651 619.953L567.42 619.473L568.188 620.626L566.844 620.914L566.651 619.953ZM429.795 587.394L428.835 587.586L428.259 584.993L430.372 586.626L429.795 587.394ZM402.616 725.507L402.808 726.467L400.407 726.852L401.848 724.931L402.616 725.507ZM539.184 757.874L540.145 757.682L540.625 760.275L538.608 758.643L539.184 757.874ZM566.555 619.761L565.787 619.185L566.651 618.032L567.42 619.281L566.555 619.761Z" fill="#5A4535" fill-opacity="0.5"/>
<mask id="mask1_12_17" style="mask-type:luminance" maskUnits="userSpaceOnUse" x="52" y="12" width="186" height="484">
<path d="M149.704 494.173L149.597 494.854L149.242 494.263C72.5904 366.79 22.9882 234.838 73.8288 84.6135L73.8292 84.6123C77.9697 72.5754 84.8997 60.7378 92.6921 50.7321L92.6939 50.7298C114.722 23.1208 142.663 6.4317 179.382 15.0095L179.384 15.0101C214.542 23.5834 235.946 50.088 237.006 83.4371L237.008 83.4817L236.993 83.5241L236.911 83.7699C238.06 120.561 234.408 159.86 221.913 194.27C189.072 284.829 163.436 376.531 153.451 472.26C153.113 475.971 152.463 479.606 151.755 483.233C151.595 484.052 151.432 484.87 151.269 485.689C150.709 488.499 150.149 491.314 149.704 494.173Z" fill="white" stroke="white" stroke-width="0.5"/>
</mask>
<g mask="url(#mask1_12_17)">
<path d="M237.429 83.0608L237.525 83.2529L235.796 84.1173L235.7 83.9252L237.429 83.0608ZM179.421 14.3885C214.955 23.0326 236.468 49.8292 237.525 83.445L235.604 83.5411C234.547 50.7897 213.611 24.6654 178.941 16.3094L179.421 14.3885ZM92.025 50.3095C114.21 22.5524 142.35 5.64844 179.421 14.3885L178.941 16.2134C142.926 7.76144 115.459 24.0891 93.5616 51.462L92.025 50.3095ZM73.1052 84.4055C77.3309 72.3038 84.2458 60.3942 92.025 50.3095L93.5616 51.462C85.8785 61.3547 79.0597 73.0722 74.93 84.9818L73.1052 84.4055ZM148.592 494.615C71.8567 367.163 22.2044 234.908 73.1052 84.4055L74.93 84.9818C24.2212 234.716 73.6815 366.298 150.321 493.654L148.592 494.615ZM154.162 472.332C153.49 479.728 151.569 487.123 150.417 494.326L148.496 494.038C149.745 486.547 151.569 479.535 152.242 472.14L154.162 472.332ZM222.638 194.473C189.889 285.044 164.151 376.671 154.162 472.332L152.242 472.14C162.23 376.287 187.968 284.564 220.814 193.897L222.638 194.473ZM237.621 83.6371C238.869 120.422 235.124 159.897 222.542 194.473L220.718 193.801C233.203 159.513 236.852 120.326 235.604 83.7331L237.621 83.6371ZM236.564 83.445L235.7 83.9252L235.604 83.7331L235.604 83.5411L236.564 83.445ZM149.456 494.134L150.417 494.326L150.033 496.92L148.688 494.711L149.456 494.134ZM236.66 83.7331L237.525 83.2529L237.621 83.445L237.621 83.6371L236.66 83.7331Z" fill="#5A4535" fill-opacity="0.5"/>
<path d="M237.629 83.8875C238.849 120.508 235.114 159.776 222.638 194.211L237.629 83.8875ZM237.629 83.8875L237.38 83.9124M179.727 14.2062C215.127 22.9172 236.606 49.6439 237.766 83.1765L237.844 83.3332L237.86 83.3647L237.871 83.386L237.871 83.445L237.871 83.6327C239.116 120.34 235.392 159.737 222.876 194.286L222.962 194.313L222.874 194.558C190.128 285.118 164.397 376.724 154.411 472.357C154.074 476.067 153.424 479.774 152.715 483.449C152.529 484.413 152.339 485.375 152.15 486.334C151.617 489.034 151.088 491.712 150.664 494.365C150.664 494.365 150.664 494.366 150.664 494.366L150.28 496.956L150.179 497.64L149.819 497.05L148.532 494.934L148.503 494.95L148.378 494.743C71.6711 367.339 21.985 235.075 72.7867 84.5671L72.7843 84.5663L72.8684 84.3254L72.8692 84.3231L72.9469 84.0933L72.9495 84.0942C77.1643 72.1217 83.9921 60.3527 91.6724 50.3576L91.6687 50.3548L91.827 50.1568L91.8297 50.1534L91.9777 49.9615L91.9812 49.9641C114.13 22.3355 142.242 5.46774 179.238 14.0889L179.238 14.0869L179.478 14.1452L179.48 14.1456L179.728 14.2041L179.727 14.2062Z" stroke="#5A4535" stroke-opacity="0.5" stroke-width="0.5"/>
</g>
<mask id="mask2_12_17" style="mask-type:luminance" maskUnits="userSpaceOnUse" x="-263" y="758" width="578" height="454">
<path d="M-261.782 1105.58C-262.66 1078.09 -247.577 1050.41 -215.909 1027.59L-215.927 1027.56C-172.021 996.14 -123.89 969.72 -74.6101 947.624C-46.9755 935.159 -19.1682 923.054 8.63672 910.949C111.11 866.34 213.552 821.744 307.206 759.203L307.364 759.098L307.508 759.221C308.518 760.087 309.552 761.001 310.584 761.913L310.589 761.917C311.62 762.828 312.649 763.738 313.654 764.6L313.806 764.729L313.713 764.906C307.949 775.842 302.386 786.883 296.823 797.923C285.247 820.898 273.674 843.866 260.307 865.863L260.094 865.733L260.307 865.863C179.332 998.813 78.943 1113.62 -58.7293 1191.93L-58.8529 1191.71L-58.7294 1191.93C-85.3233 1207.03 -111.496 1212.9 -137.085 1210.86C-162.672 1208.81 -187.659 1198.85 -211.888 1182.31C-244.009 1160.38 -260.902 1133.11 -261.782 1105.58Z" fill="white" stroke="white" stroke-width="0.5"/>
</mask>
<g mask="url(#mask2_12_17)">
<mask id="path-8-outside-1_12_17" maskUnits="userSpaceOnUse" x="-263.491" y="757.258" width="579" height="456.001" fill="black">
<rect fill="white" x="-263.491" y="757.258" width="579" height="456.001"/>
<path d="M-215.109 1028.43L-215.301 1028.53L-216.165 1026.8L-215.973 1026.71L-215.109 1028.43ZM-212.228 1182.87C-244.497 1160.88 -261.496 1133.41 -262.456 1105.56C-263.321 1077.71 -248.05 1049.76 -216.069 1026.9L-214.917 1028.43C-246.514 1051.1 -261.304 1078.47 -260.439 1105.56C-259.575 1132.64 -242.96 1159.54 -211.075 1181.34L-212.228 1182.87ZM-58.3727 1192.48C-85.0716 1207.65 -111.386 1213.61 -137.125 1211.5C-162.864 1209.48 -187.93 1199.39 -212.228 1182.87L-211.171 1181.24C-187.065 1197.67 -162.287 1207.56 -137.029 1209.58C-111.675 1211.59 -85.7439 1205.83 -59.3331 1190.75L-58.3727 1192.48ZM260.958 866.117C179.901 999.14 79.5398 1114.01 -58.3727 1192.38L-59.3331 1190.75C78.1953 1112.57 178.364 997.891 259.326 865.157L260.958 866.117ZM314.356 765.174C296.589 798.789 280.742 833.558 260.958 866.117L259.326 865.157C279.11 832.597 294.86 798.021 312.723 764.309L314.356 765.174ZM308.018 758.643C309.074 759.507 310.034 760.371 311.091 761.332C312.147 762.196 313.204 763.157 314.164 764.021L312.915 765.462C311.859 764.597 310.899 763.733 309.842 762.772C308.786 761.908 307.729 760.948 306.769 760.083L308.018 758.643ZM-74.8914 946.988C54.6656 888.496 187.776 838.072 306.865 758.547L307.921 760.179C188.737 839.801 55.3379 890.321 -74.0271 948.716L-74.8914 946.988ZM-216.357 1026.99C-172.467 995.586 -124.256 969.078 -74.8914 946.988L-74.1231 948.716C-123.391 970.807 -171.507 997.219 -215.301 1028.53L-216.357 1026.99ZM-215.589 1027.57L-216.069 1026.71L-215.013 1028.34L-215.589 1027.57ZM313.492 764.693L314.068 763.925L314.644 764.405L314.26 765.078L313.492 764.693ZM307.345 759.411L306.769 758.643L307.345 758.258L307.921 758.739L307.345 759.411ZM-215.781 1027.76L-215.301 1028.63L-216.357 1026.99L-215.781 1027.76Z"/>
</mask>
<path d="M-215.109 1028.43L-215.301 1028.53L-216.165 1026.8L-215.973 1026.71L-215.109 1028.43ZM-212.228 1182.87C-244.497 1160.88 -261.496 1133.41 -262.456 1105.56C-263.321 1077.71 -248.05 1049.76 -216.069 1026.9L-214.917 1028.43C-246.514 1051.1 -261.304 1078.47 -260.439 1105.56C-259.575 1132.64 -242.96 1159.54 -211.075 1181.34L-212.228 1182.87ZM-58.3727 1192.48C-85.0716 1207.65 -111.386 1213.61 -137.125 1211.5C-162.864 1209.48 -187.93 1199.39 -212.228 1182.87L-211.171 1181.24C-187.065 1197.67 -162.287 1207.56 -137.029 1209.58C-111.675 1211.59 -85.7439 1205.83 -59.3331 1190.75L-58.3727 1192.48ZM260.958 866.117C179.901 999.14 79.5398 1114.01 -58.3727 1192.38L-59.3331 1190.75C78.1953 1112.57 178.364 997.891 259.326 865.157L260.958 866.117ZM314.356 765.174C296.589 798.789 280.742 833.558 260.958 866.117L259.326 865.157C279.11 832.597 294.86 798.021 312.723 764.309L314.356 765.174ZM308.018 758.643C309.074 759.507 310.034 760.371 311.091 761.332C312.147 762.196 313.204 763.157 314.164 764.021L312.915 765.462C311.859 764.597 310.899 763.733 309.842 762.772C308.786 761.908 307.729 760.948 306.769 760.083L308.018 758.643ZM-74.8914 946.988C54.6656 888.496 187.776 838.072 306.865 758.547L307.921 760.179C188.737 839.801 55.3379 890.321 -74.0271 948.716L-74.8914 946.988ZM-216.357 1026.99C-172.467 995.586 -124.256 969.078 -74.8914 946.988L-74.1231 948.716C-123.391 970.807 -171.507 997.219 -215.301 1028.53L-216.357 1026.99ZM-215.589 1027.57L-216.069 1026.71L-215.013 1028.34L-215.589 1027.57ZM313.492 764.693L314.068 763.925L314.644 764.405L314.26 765.078L313.492 764.693ZM307.345 759.411L306.769 758.643L307.345 758.258L307.921 758.739L307.345 759.411ZM-215.781 1027.76L-215.301 1028.63L-216.357 1026.99L-215.781 1027.76Z" fill="#5A4535" fill-opacity="0.5"/>
<path d="M259.452 864.941L261.085 865.902L260.831 866.333L259.199 865.372L259.452 864.941ZM-211.548 1182.26L-212.124 1183.02L-212.524 1182.72L-211.948 1181.96L-211.548 1182.26ZM-58.6343 1191.49L-58.1541 1192.36L-58.5912 1192.6L-59.0714 1191.74L-58.6343 1191.49ZM260.311 865.418L261.176 865.899L260.933 866.336L260.068 865.856L260.311 865.418ZM-74.2788 947.75L-73.8947 948.615L-74.3516 948.818L-74.7357 947.954L-74.2788 947.75ZM-215.109 1028.43L-214.662 1028.21L-214.438 1028.66L-214.885 1028.88L-215.109 1028.43ZM-215.301 1028.53L-215.077 1028.98L-215.466 1029.17L-215.713 1028.81L-215.301 1028.53ZM-216.165 1026.8L-216.613 1027.02L-216.836 1026.58L-216.389 1026.35L-216.165 1026.8ZM-215.973 1026.71L-216.197 1026.26L-215.75 1026.03L-215.526 1026.48L-215.973 1026.71ZM-212.228 1182.87L-212.509 1183.29L-212.509 1183.29L-212.228 1182.87ZM-262.456 1105.56L-262.956 1105.58L-262.956 1105.57L-262.456 1105.56ZM-216.069 1026.9L-216.36 1026.49L-215.962 1026.21L-215.669 1026.6L-216.069 1026.9ZM-214.917 1028.43L-214.517 1028.13L-214.21 1028.54L-214.625 1028.84L-214.917 1028.43ZM-211.075 1181.34L-210.793 1180.93L-210.362 1181.22L-210.675 1181.64L-211.075 1181.34ZM-58.3727 1192.48L-57.9356 1192.24L-57.6952 1192.67L-58.1256 1192.91L-58.3727 1192.48ZM-137.125 1211.5L-137.086 1211L-137.084 1211L-137.125 1211.5ZM-211.171 1181.24L-211.591 1180.97L-211.313 1180.54L-210.89 1180.83L-211.171 1181.24ZM-137.029 1209.58L-137.069 1210.07L-137.069 1210.07L-137.029 1209.58ZM-59.3331 1190.75L-59.581 1190.32L-59.5802 1190.32L-59.3331 1190.75ZM260.958 866.117L261.385 866.377L261.385 866.377L260.958 866.117ZM-58.3727 1192.38L-58.1256 1192.82L-58.5539 1193.06L-58.8037 1192.64L-58.3727 1192.38ZM259.326 865.157L259.753 865.416L259.752 865.417L259.326 865.157ZM314.356 765.174L314.59 764.732L315.032 764.966L314.798 765.407L314.356 765.174ZM312.723 764.309L312.282 764.075L312.516 763.633L312.957 763.867L312.723 764.309ZM308.018 758.643L307.64 758.315L307.958 757.948L308.334 758.256L308.018 758.643ZM311.091 761.332L310.774 761.719L310.764 761.711L310.754 761.702L311.091 761.332ZM314.164 764.021L314.498 763.649L314.863 763.978L314.542 764.349L314.164 764.021ZM312.915 765.462L313.293 765.789L312.975 766.157L312.599 765.849L312.915 765.462ZM309.842 762.772L310.159 762.386L310.169 762.394L310.179 762.403L309.842 762.772ZM306.769 760.083L306.434 760.455L306.07 760.127L306.391 759.756L306.769 760.083ZM306.865 758.547L306.587 758.131L307.009 757.849L307.285 758.275L306.865 758.547ZM307.921 760.179L308.341 759.908L308.609 760.321L308.199 760.595L307.921 760.179ZM-74.0271 948.716L-73.8214 949.172L-74.2594 949.37L-74.4743 948.94L-74.0271 948.716ZM-216.357 1026.99L-216.777 1027.26L-217.036 1026.86L-216.648 1026.59L-216.357 1026.99ZM-74.1231 948.716L-73.6662 948.513L-73.4638 948.969L-73.9186 949.173L-74.1231 948.716ZM-215.589 1027.57L-215.989 1027.87L-216.01 1027.84L-216.026 1027.81L-215.589 1027.57ZM-216.069 1026.71L-216.506 1026.95L-215.65 1026.43L-216.069 1026.71ZM-215.013 1028.34L-214.593 1028.07L-215.413 1028.64L-215.013 1028.34ZM313.492 764.693L313.268 765.141L312.732 764.873L313.092 764.393L313.492 764.693ZM314.068 763.925L313.668 763.625L313.984 763.204L314.388 763.541L314.068 763.925ZM314.644 764.405L314.964 764.021L315.286 764.289L315.078 764.653L314.644 764.405ZM314.26 765.078L314.694 765.326L314.46 765.736L314.036 765.525L314.26 765.078ZM307.345 759.411L307.725 759.736L307.319 760.21L306.945 759.711L307.345 759.411ZM306.769 758.643L306.369 758.943L306.052 758.52L306.492 758.227L306.769 758.643ZM307.345 758.258L307.068 757.842L307.379 757.635L307.665 757.874L307.345 758.258ZM307.921 758.739L308.242 758.355L308.631 758.679L308.301 759.064L307.921 758.739ZM-215.781 1027.76L-215.381 1027.46L-215.361 1027.49L-215.344 1027.52L-215.781 1027.76ZM-215.301 1028.63L-214.864 1028.38L-215.721 1028.9L-215.301 1028.63ZM-214.885 1028.88L-215.077 1028.98L-215.525 1028.08L-215.333 1027.99L-214.885 1028.88ZM-215.748 1028.75L-216.613 1027.02L-215.718 1026.58L-214.854 1028.31L-215.748 1028.75ZM-216.389 1026.35L-216.197 1026.26L-215.75 1027.15L-215.942 1027.25L-216.389 1026.35ZM-215.526 1026.48L-214.662 1028.21L-215.556 1028.66L-216.42 1026.93L-215.526 1026.48ZM-212.509 1183.29C-244.866 1161.23 -261.989 1133.63 -262.956 1105.58L-261.957 1105.54C-261.003 1133.19 -244.128 1160.53 -211.946 1182.46L-212.509 1183.29ZM-262.956 1105.57C-263.827 1077.51 -248.435 1049.42 -216.36 1026.49L-215.779 1027.3C-247.666 1050.1 -262.814 1077.9 -261.957 1105.54L-262.956 1105.57ZM-215.669 1026.6L-214.517 1028.13L-215.317 1028.73L-216.469 1027.2L-215.669 1026.6ZM-214.625 1028.84C-246.129 1051.44 -260.797 1078.67 -259.94 1105.54L-260.939 1105.57C-261.81 1078.28 -246.898 1050.76 -215.208 1028.03L-214.625 1028.84ZM-259.94 1105.54C-259.082 1132.42 -242.592 1159.18 -210.793 1180.93L-211.357 1181.75C-243.328 1159.89 -260.068 1132.87 -260.939 1105.57L-259.94 1105.54ZM-210.675 1181.64L-211.828 1183.17L-212.628 1182.57L-211.475 1181.04L-210.675 1181.64ZM-58.1256 1192.91C-84.9021 1208.13 -111.316 1214.12 -137.166 1211.99L-137.084 1211C-111.456 1213.1 -85.2412 1207.18 -58.6198 1192.04L-58.1256 1192.91ZM-137.164 1211.99C-163.009 1209.97 -188.158 1199.84 -212.509 1183.29L-211.947 1182.46C-187.702 1198.94 -162.718 1208.99 -137.086 1211L-137.164 1211.99ZM-212.648 1182.6L-211.591 1180.97L-210.752 1181.51L-211.808 1183.15L-212.648 1182.6ZM-210.89 1180.83C-186.838 1197.22 -162.141 1207.07 -136.989 1209.08L-137.069 1210.07C-162.433 1208.05 -187.293 1198.12 -211.453 1181.66L-210.89 1180.83ZM-136.989 1209.08C-111.744 1211.09 -85.9128 1205.35 -59.581 1190.32L-59.0852 1191.18C-85.575 1206.31 -111.605 1212.1 -137.069 1210.07L-136.989 1209.08ZM-58.896 1190.51L-57.9356 1192.24L-58.8098 1192.72L-59.7702 1190.99L-58.896 1190.51ZM261.385 866.377C180.299 999.447 79.8829 1114.39 -58.1256 1192.82L-58.6197 1191.95C79.1968 1113.63 179.503 998.833 260.531 865.857L261.385 866.377ZM-58.8037 1192.64L-59.7641 1191L-58.9021 1190.5L-57.9417 1192.13L-58.8037 1192.64ZM-59.5802 1190.32C77.8522 1112.19 177.966 997.584 258.899 864.896L259.752 865.417C178.763 998.198 78.5384 1112.95 -59.086 1191.18L-59.5802 1190.32ZM314.798 765.407C297.05 798.986 281.179 833.802 261.385 866.377L260.531 865.858C280.306 833.313 296.127 798.592 313.914 764.94L314.798 765.407ZM258.898 864.897C278.674 832.352 294.398 797.824 312.282 764.075L313.165 764.543C295.322 798.218 279.546 832.843 259.753 865.416L258.898 864.897ZM312.957 763.867L314.59 764.732L314.122 765.616L312.489 764.751L312.957 763.867ZM308.334 758.256C309.402 759.129 310.37 760.001 311.427 760.962L310.754 761.702C309.698 760.742 308.746 759.885 307.701 759.03L308.334 758.256ZM311.407 760.945C312.475 761.818 313.542 762.788 314.498 763.649L313.829 764.393C312.866 763.525 311.819 762.574 310.774 761.719L311.407 760.945ZM314.542 764.349L313.293 765.789L312.538 765.134L313.786 763.694L314.542 764.349ZM312.599 765.849C311.531 764.975 310.563 764.103 309.506 763.142L310.179 762.403C311.235 763.363 312.187 764.219 313.232 765.075L312.599 765.849ZM309.526 763.159C308.458 762.286 307.391 761.316 306.434 760.455L307.103 759.712C308.067 760.579 309.114 761.53 310.159 762.386L309.526 763.159ZM306.391 759.756L307.64 758.315L308.395 758.97L307.147 760.411L306.391 759.756ZM-75.0972 946.532C54.4979 888.023 187.544 837.626 306.587 758.131L307.143 758.962C188.008 838.518 54.8334 888.969 -74.6857 947.443L-75.0972 946.532ZM307.285 758.275L308.341 759.908L307.502 760.451L306.445 758.818L307.285 758.275ZM308.199 760.595C188.969 840.247 55.5056 890.794 -73.8214 949.172L-74.2328 948.261C55.1703 889.848 188.504 839.355 307.644 759.764L308.199 760.595ZM-74.4743 948.94L-75.3387 947.211L-74.4442 946.764L-73.5799 948.493L-74.4743 948.94ZM-216.648 1026.59C-172.726 995.157 -124.484 968.633 -75.0957 946.531L-74.6872 947.444C-124.027 969.523 -172.208 996.016 -216.066 1027.4L-216.648 1026.59ZM-74.4345 946.785L-73.6662 948.513L-74.58 948.919L-75.3483 947.191L-74.4345 946.785ZM-73.9186 949.173C-123.163 971.252 -171.248 997.649 -215.01 1028.94L-215.592 1028.12C-171.766 996.79 -123.62 970.361 -74.3277 948.26L-73.9186 949.173ZM-215.713 1028.81L-216.769 1027.28L-215.945 1026.71L-214.889 1028.25L-215.713 1028.81ZM-216.026 1027.81L-216.506 1026.95L-215.632 1026.46L-215.152 1027.33L-216.026 1027.81ZM-215.65 1026.43L-214.593 1028.07L-215.433 1028.61L-216.489 1026.98L-215.65 1026.43ZM-215.413 1028.64L-215.989 1027.87L-215.189 1027.27L-214.613 1028.04L-215.413 1028.64ZM313.092 764.393L313.668 763.625L314.468 764.225L313.892 764.993L313.092 764.393ZM314.388 763.541L314.964 764.021L314.324 764.789L313.748 764.309L314.388 763.541ZM315.078 764.653L314.694 765.326L313.826 764.83L314.21 764.157L315.078 764.653ZM314.036 765.525L313.268 765.141L313.715 764.246L314.484 764.63L314.036 765.525ZM306.945 759.711L306.369 758.943L307.169 758.343L307.745 759.111L306.945 759.711ZM306.492 758.227L307.068 757.842L307.623 758.674L307.046 759.059L306.492 758.227ZM307.665 757.874L308.242 758.355L307.601 759.123L307.025 758.643L307.665 757.874ZM308.301 759.064L307.725 759.736L306.966 759.086L307.542 758.413L308.301 759.064ZM-215.344 1027.52L-214.864 1028.38L-215.738 1028.87L-216.218 1028L-215.344 1027.52ZM-215.721 1028.9L-216.777 1027.26L-215.938 1026.72L-214.881 1028.35L-215.721 1028.9ZM-215.957 1026.69L-215.381 1027.46L-216.181 1028.06L-216.757 1027.29L-215.957 1026.69Z" fill="#5A4535" fill-opacity="0.5" mask="url(#path-8-outside-1_12_17)"/>
</g>
<mask id="mask3_12_17" style="mask-type:luminance" maskUnits="userSpaceOnUse" x="-258" y="292" width="438" height="375">
<path d="M-205.65 530.067L-205.651 530.066C-258.781 491.756 -271.274 412.856 -240.203 355.327C-218.737 315.52 -177.014 294.569 -134.3 293.198C-91.5855 291.827 -47.847 310.035 -22.3414 348.584L-22.341 348.585C-9.45831 368.198 0.729278 390.307 9.18423 412.214L9.18463 412.215C46.0636 509.124 87.4346 603.084 178.218 665.657L178.801 666.059L178.095 666.112C151.311 668.132 108.449 662.987 63.34 653.153C18.2263 643.318 -29.1643 628.787 -65.0092 612.016L-65.1065 611.971L-65.1405 611.869L-65.2027 611.682C-114.161 588.636 -161.871 561.367 -205.65 530.067Z" fill="white" stroke="white" stroke-width="0.5"/>
</mask>
<g mask="url(#mask3_12_17)">
<path d="M-65.7677 612.174L-65.8637 611.982L-64.135 611.118L-64.039 611.31L-65.7677 612.174ZM178.172 666.824C151.281 668.841 108.352 663.654 63.2132 653.858C18.0747 643.965 -29.3687 629.462 -65.2875 612.654L-64.4231 610.926C-28.6965 627.637 18.5549 642.14 63.5973 652.033C108.64 661.829 151.377 667.016 177.98 664.999L178.172 666.824ZM9.81531 411.92C46.7905 508.829 87.9913 602.569 178.556 665.095L177.5 666.631C86.3587 603.818 44.9657 509.502 7.99057 412.592L9.81531 411.92ZM-21.7816 348.146C-8.91237 367.835 1.36386 390.022 9.81531 411.92L7.99057 412.592C-0.460907 390.694 -10.6411 368.7 -23.4143 349.202L-21.7816 348.146ZM-240.751 354.965C-219.142 314.914 -177.173 293.784 -134.244 292.44C-91.3141 291.095 -47.3281 309.344 -21.6856 348.146L-23.3183 349.202C-48.5766 311.072 -91.8904 293.016 -134.244 294.361C-176.597 295.705 -217.894 316.547 -239.119 355.83L-240.751 354.965ZM-206.081 530.632C-259.479 492.022 -271.964 412.785 -240.751 354.965L-239.023 355.83C-269.851 412.977 -257.462 491.157 -204.833 529.095L-206.081 530.632ZM-65.3835 612.366C-114.364 589.315 -162.191 562.039 -205.985 530.632L-204.833 529.095C-161.135 560.406 -113.403 587.683 -64.5192 610.637L-65.3835 612.366ZM-64.9033 611.694L-65.2875 612.558L-65.5756 612.462L-65.7677 612.174L-64.9033 611.694ZM178.076 665.863L178.652 665.095L180.861 666.631L178.172 666.824L178.076 665.863ZM-64.9993 611.502L-64.6152 610.637L-64.3271 610.733L-64.135 611.022L-64.9993 611.502Z" fill="#5A4535" fill-opacity="0.5"/>
<path d="M-206 530.929C-162.363 562.209 -114.729 589.39 -65.9452 612.378L-65.8795 612.51L-65.8533 612.496L-65.7836 612.601L-65.736 612.672L-65.6547 612.699L-65.5988 612.718L-65.6258 612.772L-65.3934 612.881C-29.4524 629.699 18.0103 644.207 63.1597 654.102L63.1602 654.102C108.305 663.9 151.263 669.093 178.191 667.073L178.192 667.073L180.879 666.881L181.585 666.83L181.004 666.426L178.795 664.89L178.597 664.752L178.564 664.796C88.2356 602.37 47.0726 508.844 10.139 412.067L10.14 412.067L10.0489 411.831L10.0486 411.83C10.0484 411.829 10.0483 411.829 10.0481 411.829L9.96078 411.6L9.95984 411.6C1.55789 389.861 -8.64677 367.84 -21.4066 348.263L-21.3379 348.219L-21.477 348.008C-47.1748 309.122 -91.2496 290.843 -134.252 292.19C-177.178 293.534 -219.164 314.629 -240.856 354.633L-240.856 354.633L-240.946 354.799C-240.954 354.815 -240.963 354.831 -240.971 354.847L-206 530.929ZM-206 530.929L-206.036 530.973L-206.228 530.835C-259.674 492.19 -272.203 412.962 -241.091 355.068L-241.091 355.068L-241.001 354.902L-206 530.929ZM-238.755 355.684C-217.538 316.664 -176.421 295.95 -134.236 294.611C-92.0493 293.271 -48.9225 311.213 -23.6954 349.086L-23.7612 349.129L-23.6234 349.339C-10.8633 368.816 -0.690552 390.793 7.75732 412.682C44.3659 508.631 85.3267 602.105 174.66 664.959C147.938 666.337 106.866 661.188 63.6505 651.788M-238.755 355.684L63.5973 652.033M-238.755 355.684L-238.68 355.721L-238.803 355.948C-269.581 413.002 -257.199 491.039 -204.686 528.892C-161.003 560.193 -113.285 587.462 -64.4129 610.411L-64.1914 610.515M-238.755 355.684L-64.1914 610.515M63.6505 651.788L63.5973 652.033M63.6505 651.788C63.6506 651.788 63.6508 651.789 63.651 651.789L63.5973 652.033M63.6505 651.788C18.7825 641.934 -28.2704 627.506 -63.9285 610.881M63.5973 652.033C18.8129 642.197 -28.1552 627.803 -63.8081 611.212L-63.8153 611.198L-63.842 611.145L-63.7766 611.108L-63.927 610.883L-63.9285 610.881M-63.9285 610.881L-64.119 610.595L-64.1666 610.523L-64.1914 610.515M-63.9285 610.881C-63.9482 610.871 -63.968 610.862 -63.9878 610.853L-64.0232 610.782L-64.0793 610.81L-64.1914 610.515" stroke="#5A4535" stroke-opacity="0.5" stroke-width="0.5"/>
</g>
<mask id="mask4_12_17" style="mask-type:luminance" maskUnits="userSpaceOnUse" x="-381" y="611" width="554" height="250">
<path d="M-367.243 668.644L-367.437 668.741L-367.072 668.052C-354.898 645.049 -336.919 628.414 -314.615 619.458C-292.312 610.502 -265.701 609.232 -236.27 616.927L-236.27 616.927C-196.6 627.406 -157.65 641.629 -118.872 655.79C-112.856 657.987 -106.843 660.183 -100.833 662.363L-100.831 662.363C-84.8916 668.261 -69.0392 674.414 -53.1942 680.564C18.7247 708.479 90.4877 736.334 169.54 739.952L169.734 739.961L169.774 740.151C170.348 742.929 171.114 745.897 171.975 748.479L172.045 748.69L171.844 748.784C159.035 754.783 146.304 760.956 133.577 767.127C107.192 779.921 80.822 792.708 53.8011 803.919L53.8008 803.919C-33.3235 839.943 -123.16 865.025 -218.675 860.028C-263.369 857.721 -305.21 845.8 -338.976 814.918C-380.631 776.995 -392.084 716.099 -367.243 668.644Z" fill="white" stroke="white" stroke-width="0.5"/>
</mask>
<g mask="url(#mask4_12_17)">
<mask id="path-14-outside-2_12_17" maskUnits="userSpaceOnUse" x="-381.964" y="610.155" width="556" height="252.001" fill="black">
<rect fill="white" x="-381.964" y="610.155" width="556" height="252.001"/>
<path d="M-366.179 668.937L-366.371 669.033L-367.235 667.304L-367.043 667.208L-366.179 668.937ZM-339.48 815.406C-381.545 777.084 -392.974 715.519 -367.523 667.592L-365.795 668.457C-390.861 715.519 -379.624 776.219 -338.231 813.965L-339.48 815.406ZM-218.758 860.739C-263.609 858.434 -305.674 846.428 -339.576 815.406L-338.327 813.965C-304.81 844.603 -263.225 856.417 -218.758 858.722L-218.758 860.739ZM54.0896 804.552C-33.1142 840.569 -123.007 865.733 -218.662 860.739L-218.566 858.818C-123.295 863.812 -33.6904 838.84 53.4173 802.823L54.0896 804.552ZM172.122 749.518C132.842 767.959 94.138 788.032 54.0896 804.648L53.3213 802.919C93.3697 786.208 131.881 766.23 171.258 747.789L172.122 749.518ZM170.489 740.01C171.065 742.795 171.834 745.676 172.602 748.366L170.777 748.942C169.913 746.253 169.241 743.275 168.568 740.49L170.489 740.01ZM-100.63 661.733C-12.2737 694.388 73.2014 734.823 169.529 739.241L169.433 741.162C72.6251 736.744 -13.138 696.117 -101.302 663.462L-100.63 661.733ZM-236.045 616.208C-190.139 628.31 -145.288 645.406 -100.63 661.733L-101.302 663.558C-146.056 647.23 -190.811 630.134 -236.622 618.129L-236.045 616.208ZM-367.715 667.688C-355.422 644.541 -337.367 627.829 -314.894 618.801C-292.42 609.773 -265.625 608.524 -236.045 616.208L-236.526 618.033C-265.818 610.445 -292.132 611.694 -314.125 620.53C-336.118 629.366 -353.886 645.79 -365.987 668.553L-367.715 667.688ZM-366.659 668.072L-367.139 667.208L-364.354 665.767L-365.795 668.553L-366.659 668.072ZM171.738 748.654L172.698 748.366L172.986 749.134L172.218 749.518L171.738 748.654ZM169.529 740.202L169.529 739.241L170.297 739.241L170.489 739.914L169.529 740.202ZM-366.851 668.168L-366.371 669.033L-369.156 670.474L-367.715 667.688L-366.851 668.168Z"/>
</mask>
<path d="M-366.179 668.937L-366.371 669.033L-367.235 667.304L-367.043 667.208L-366.179 668.937ZM-339.48 815.406C-381.545 777.084 -392.974 715.519 -367.523 667.592L-365.795 668.457C-390.861 715.519 -379.624 776.219 -338.231 813.965L-339.48 815.406ZM-218.758 860.739C-263.609 858.434 -305.674 846.428 -339.576 815.406L-338.327 813.965C-304.81 844.603 -263.225 856.417 -218.758 858.722L-218.758 860.739ZM54.0896 804.552C-33.1142 840.569 -123.007 865.733 -218.662 860.739L-218.566 858.818C-123.295 863.812 -33.6904 838.84 53.4173 802.823L54.0896 804.552ZM172.122 749.518C132.842 767.959 94.138 788.032 54.0896 804.648L53.3213 802.919C93.3697 786.208 131.881 766.23 171.258 747.789L172.122 749.518ZM170.489 740.01C171.065 742.795 171.834 745.676 172.602 748.366L170.777 748.942C169.913 746.253 169.241 743.275 168.568 740.49L170.489 740.01ZM-100.63 661.733C-12.2737 694.388 73.2014 734.823 169.529 739.241L169.433 741.162C72.6251 736.744 -13.138 696.117 -101.302 663.462L-100.63 661.733ZM-236.045 616.208C-190.139 628.31 -145.288 645.406 -100.63 661.733L-101.302 663.558C-146.056 647.23 -190.811 630.134 -236.622 618.129L-236.045 616.208ZM-367.715 667.688C-355.422 644.541 -337.367 627.829 -314.894 618.801C-292.42 609.773 -265.625 608.524 -236.045 616.208L-236.526 618.033C-265.818 610.445 -292.132 611.694 -314.125 620.53C-336.118 629.366 -353.886 645.79 -365.987 668.553L-367.715 667.688ZM-366.659 668.072L-367.139 667.208L-364.354 665.767L-365.795 668.553L-366.659 668.072ZM171.738 748.654L172.698 748.366L172.986 749.134L172.218 749.518L171.738 748.654ZM169.529 740.202L169.529 739.241L170.297 739.241L170.489 739.914L169.529 740.202ZM-366.851 668.168L-366.371 669.033L-369.156 670.474L-367.715 667.688L-366.851 668.168Z" fill="#5A4535" fill-opacity="0.5"/>
<path d="M-339.08 814.557L-338.408 813.884L-338.054 814.238L-338.727 814.91L-339.08 814.557ZM-218.911 859.754L-218.815 858.793L-218.317 858.843L-218.413 859.803L-218.911 859.754ZM53.9339 803.586L54.318 804.451L53.8611 804.654L53.477 803.789L53.9339 803.586ZM-101.155 662.519L-100.867 661.654L-100.393 661.812L-100.681 662.677L-101.155 662.519ZM-236.579 617.119L-236.387 616.159L-235.896 616.257L-236.088 617.217L-236.579 617.119ZM-366.179 668.937L-365.731 668.713L-365.508 669.161L-365.955 669.384L-366.179 668.937ZM-367.235 667.304L-367.682 667.528L-367.906 667.081L-367.459 666.857L-367.235 667.304ZM-367.043 667.208L-367.267 666.761L-366.819 666.537L-366.596 666.984L-367.043 667.208ZM-339.48 815.406L-339.102 815.733L-339.438 816.121L-339.816 815.775L-339.48 815.406ZM-367.523 667.592L-367.965 667.358L-367.736 666.927L-367.3 667.145L-367.523 667.592ZM-365.795 668.457L-365.571 668.009L-365.112 668.239L-365.353 668.692L-365.795 668.457ZM-338.231 813.965L-337.894 813.596L-337.534 813.924L-337.853 814.292L-338.231 813.965ZM-218.758 860.739L-218.258 860.739L-218.258 861.265L-218.784 861.238L-218.758 860.739ZM-339.576 815.406L-339.913 815.775L-340.272 815.446L-339.954 815.078L-339.576 815.406ZM-338.327 813.965L-338.705 813.638L-338.369 813.25L-337.99 813.596L-338.327 813.965ZM-218.758 858.722L-218.732 858.223L-218.258 858.247L-218.258 858.722L-218.758 858.722ZM54.0896 804.552L54.5556 804.371L54.7331 804.827L54.2804 805.014L54.0896 804.552ZM-218.662 860.739L-218.688 861.238L-219.187 861.212L-219.162 860.714L-218.662 860.739ZM-218.566 858.818L-219.066 858.793L-219.041 858.292L-218.54 858.319L-218.566 858.818ZM53.4173 802.823L53.2262 802.361L53.6982 802.166L53.8833 802.642L53.4173 802.823ZM172.122 749.518L172.569 749.295L172.798 749.753L172.334 749.971L172.122 749.518ZM54.0896 804.648L54.2812 805.11L53.8307 805.297L53.6327 804.851L54.0896 804.648ZM53.3213 802.919L52.8643 803.122L52.6566 802.655L53.1287 802.458L53.3213 802.919ZM171.258 747.789L171.046 747.337L171.487 747.13L171.705 747.566L171.258 747.789ZM170.489 740.01L170.368 739.525L170.873 739.398L170.979 739.908L170.489 740.01ZM172.602 748.366L173.083 748.228L173.217 748.696L172.753 748.842L172.602 748.366ZM170.777 748.942L170.928 749.419L170.454 749.569L170.301 749.095L170.777 748.942ZM168.568 740.49L168.082 740.607L167.966 740.125L168.447 740.005L168.568 740.49ZM-100.63 661.733L-100.458 661.264L-100.457 661.264L-100.63 661.733ZM169.433 741.162L169.932 741.187L169.907 741.684L169.41 741.662L169.433 741.162ZM-101.302 663.462L-101.476 663.931L-101.952 663.754L-101.768 663.281L-101.302 663.462ZM-236.045 616.208L-235.92 615.724L-235.918 615.724L-236.045 616.208ZM-101.302 663.558L-100.833 663.731L-101.005 664.199L-101.473 664.028L-101.302 663.558ZM-236.622 618.129L-236.748 618.612L-237.249 618.481L-237.101 617.985L-236.622 618.129ZM-367.715 667.688L-368.159 667.459L-368.157 667.454L-367.715 667.688ZM-236.526 618.033L-236.042 618.16L-236.169 618.642L-236.651 618.517L-236.526 618.033ZM-365.987 668.553L-365.545 668.787L-365.774 669.218L-366.21 669L-365.987 668.553ZM-366.659 668.072L-366.902 668.51L-367.027 668.44L-367.096 668.315L-366.659 668.072ZM-367.139 667.208L-367.576 667.451L-367.826 667.001L-367.369 666.764L-367.139 667.208ZM-364.354 665.767L-364.584 665.323L-363.188 664.601L-363.91 665.997L-364.354 665.767ZM-365.795 668.553L-365.35 668.782L-365.587 669.24L-366.037 668.99L-365.795 668.553ZM171.738 748.654L171.301 748.897L170.999 748.353L171.594 748.175L171.738 748.654ZM172.698 748.366L172.554 747.887L173.002 747.752L173.166 748.19L172.698 748.366ZM172.986 749.134L173.454 748.958L173.612 749.38L173.21 749.581L172.986 749.134ZM172.218 749.518L172.442 749.965L172.013 750.179L171.781 749.761L172.218 749.518ZM169.529 740.202L169.673 740.681L169.029 740.874L169.029 740.202L169.529 740.202ZM170.297 739.241L170.297 738.741L170.674 738.741L170.778 739.104L170.297 739.241ZM170.489 739.914L170.97 739.776L171.106 740.251L170.633 740.393L170.489 739.914ZM-366.851 668.168L-366.608 667.731L-366.483 667.801L-366.414 667.926L-366.851 668.168ZM-369.156 670.474L-368.926 670.918L-370.322 671.64L-369.6 670.244L-369.156 670.474ZM-365.955 669.384L-366.147 669.48L-366.594 668.586L-366.402 668.49L-365.955 669.384ZM-366.818 669.256L-367.682 667.528L-366.788 667.08L-365.924 668.809L-366.818 669.256ZM-367.459 666.857L-367.267 666.761L-366.819 667.655L-367.011 667.751L-367.459 666.857ZM-366.596 666.984L-365.731 668.713L-366.626 669.16L-367.49 667.432L-366.596 666.984ZM-339.816 815.775C-382.041 777.308 -393.528 715.497 -367.965 667.358L-367.082 667.827C-392.419 715.541 -381.049 776.86 -339.143 815.036L-339.816 815.775ZM-367.3 667.145L-365.571 668.009L-366.018 668.904L-367.747 668.039L-367.3 667.145ZM-365.353 668.692C-390.306 715.541 -379.128 775.995 -337.894 813.596L-338.568 814.335C-380.121 776.443 -391.415 715.496 -366.236 668.222L-365.353 668.692ZM-337.853 814.292L-339.102 815.733L-339.858 815.078L-338.609 813.638L-337.853 814.292ZM-218.784 861.238C-263.706 858.929 -305.898 846.901 -339.913 815.775L-339.238 815.037C-305.45 845.956 -263.511 857.938 -218.733 860.24L-218.784 861.238ZM-339.954 815.078L-338.705 813.638L-337.949 814.292L-339.198 815.733L-339.954 815.078ZM-337.99 813.596C-304.586 844.13 -263.128 855.921 -218.732 858.223L-218.784 859.221C-263.321 856.913 -305.033 845.076 -338.665 814.334L-337.99 813.596ZM-218.258 858.722L-218.258 860.739L-219.258 860.739L-219.258 858.722L-218.258 858.722ZM54.2804 805.014C-32.9562 841.045 -122.928 866.238 -218.688 861.238L-218.636 860.24C-123.086 865.228 -33.2722 840.093 53.8987 804.09L54.2804 805.014ZM-219.162 860.714L-219.066 858.793L-218.067 858.843L-218.163 860.764L-219.162 860.714ZM-218.54 858.319C-123.374 863.307 -33.8481 838.365 53.2262 802.361L53.6083 803.285C-33.5327 839.316 -123.216 864.317 -218.592 859.317L-218.54 858.319ZM53.8833 802.642L54.5556 804.371L53.6236 804.733L52.9513 803.005L53.8833 802.642ZM172.334 749.971C133.079 768.4 94.3427 788.489 54.2812 805.11L53.8979 804.186C93.9333 787.576 132.604 767.518 171.909 749.066L172.334 749.971ZM53.6327 804.851L52.8643 803.122L53.7782 802.716L54.5465 804.445L53.6327 804.851ZM53.1287 802.458C93.1653 785.751 131.644 765.789 171.046 747.337L171.47 748.242C132.119 766.671 93.574 786.664 53.5138 803.381L53.1287 802.458ZM171.705 747.566L172.569 749.295L171.675 749.742L170.81 748.013L171.705 747.566ZM170.979 739.908C171.551 742.676 172.316 745.544 173.083 748.228L172.121 748.503C171.352 745.809 170.58 742.914 170 740.111L170.979 739.908ZM172.753 748.842L170.928 749.419L170.627 748.465L172.452 747.889L172.753 748.842ZM170.301 749.095C169.43 746.383 168.752 743.381 168.082 740.607L169.055 740.373C169.73 743.17 170.396 746.122 171.253 748.789L170.301 749.095ZM168.447 740.005L170.368 739.525L170.611 740.495L168.69 740.975L168.447 740.005ZM-100.457 661.264C-12.0432 693.941 73.3253 734.328 169.552 738.742L169.506 739.741C73.0775 735.318 -12.5041 694.836 -100.803 662.202L-100.457 661.264ZM170.028 739.266L169.932 741.187L168.933 741.137L169.029 739.216L170.028 739.266ZM169.41 741.662C72.5011 737.239 -13.3685 696.565 -101.476 663.931L-101.128 662.993C-12.9074 695.669 72.7491 736.249 169.456 740.663L169.41 741.662ZM-101.768 663.281L-101.096 661.552L-100.164 661.914L-100.836 663.643L-101.768 663.281ZM-235.918 615.724C-189.983 627.833 -145.106 644.94 -100.458 661.264L-100.802 662.203C-145.47 645.871 -190.294 628.786 -236.173 616.691L-235.918 615.724ZM-100.161 661.906L-100.833 663.731L-101.771 663.385L-101.099 661.56L-100.161 661.906ZM-101.473 664.028C-146.239 647.696 -190.966 630.611 -236.748 618.612L-236.495 617.645C-190.656 629.658 -145.874 646.765 -101.131 663.088L-101.473 664.028ZM-237.101 617.985L-236.524 616.064L-235.566 616.352L-236.143 618.272L-237.101 617.985ZM-368.157 667.454C-355.813 644.212 -337.672 627.413 -315.08 618.337L-314.707 619.265C-337.062 628.246 -355.031 644.871 -367.274 667.923L-368.157 667.454ZM-315.08 618.337C-292.49 609.262 -265.584 608.019 -235.92 615.724L-236.171 616.692C-265.667 609.03 -292.351 610.284 -314.707 619.265L-315.08 618.337ZM-235.562 616.335L-236.042 618.16L-237.009 617.906L-236.529 616.081L-235.562 616.335ZM-236.651 618.517C-265.86 610.951 -292.063 612.205 -313.939 620.994L-314.312 620.066C-292.202 611.183 -265.776 609.94 -236.4 617.549L-236.651 618.517ZM-313.939 620.994C-335.813 629.782 -353.495 646.119 -365.545 668.787L-366.428 668.318C-354.277 645.461 -336.424 628.95 -314.312 620.066L-313.939 620.994ZM-366.21 669L-367.939 668.135L-367.492 667.241L-365.763 668.105L-366.21 669ZM-367.096 668.315L-367.576 667.451L-366.702 666.965L-366.222 667.83L-367.096 668.315ZM-367.369 666.764L-364.584 665.323L-364.124 666.211L-366.909 667.652L-367.369 666.764ZM-363.91 665.997L-365.35 668.782L-366.239 668.323L-364.798 665.538L-363.91 665.997ZM-366.037 668.99L-366.902 668.51L-366.416 667.635L-365.552 668.116L-366.037 668.99ZM171.594 748.175L172.554 747.887L172.842 748.844L171.881 749.133L171.594 748.175ZM173.166 748.19L173.454 748.958L172.518 749.31L172.23 748.541L173.166 748.19ZM173.21 749.581L172.442 749.965L171.994 749.071L172.763 748.687L173.21 749.581ZM171.781 749.761L171.301 748.897L172.175 748.411L172.655 749.275L171.781 749.761ZM169.029 740.202L169.029 739.241L170.029 739.241L170.029 740.202L169.029 740.202ZM169.529 738.741L170.297 738.741L170.297 739.741L169.529 739.741L169.529 738.741ZM170.778 739.104L170.97 739.776L170.008 740.051L169.816 739.379L170.778 739.104ZM170.633 740.393L169.673 740.681L169.385 739.723L170.346 739.435L170.633 740.393ZM-366.414 667.926L-365.934 668.79L-366.808 669.276L-367.288 668.411L-366.414 667.926ZM-366.141 669.477L-368.926 670.918L-369.386 670.029L-366.601 668.589L-366.141 669.477ZM-369.6 670.244L-368.159 667.459L-367.271 667.918L-368.712 670.703L-369.6 670.244ZM-367.472 667.251L-366.608 667.731L-367.094 668.606L-367.958 668.125L-367.472 667.251Z" fill="#5A4535" fill-opacity="0.5" mask="url(#path-14-outside-2_12_17)"/>
</g>
<mask id="mask5_12_17" style="mask-type:luminance" maskUnits="userSpaceOnUse" x="211" y="305" width="290" height="284">
<path d="M308.314 359.31L308.314 359.31C325.914 340.265 349.28 324.112 372.929 312.959L372.931 312.958C392.934 303.704 418.261 304.507 441.015 312.048C463.767 319.588 483.997 333.883 493.785 351.675L493.785 351.676C501.699 366.153 502.062 380.839 494.629 395.608C487.205 410.361 472.012 425.182 448.85 439.983L448.849 439.984C389.562 477.721 329.946 514.965 270.457 552.129C251.214 564.15 231.984 576.164 212.783 588.183L212.4 588.422L212.4 587.971C212.4 587.703 212.332 587.148 212.231 586.351L212.227 586.314C212.128 585.533 212.004 584.547 211.897 583.432C211.681 581.168 211.535 578.364 211.826 575.65L211.827 575.642C223.261 494.735 251.992 420.441 308.314 359.31Z" fill="white" stroke="white" stroke-width="0.5"/>
</mask>
<g mask="url(#mask5_12_17)">
<path d="M211.114 575.677C222.542 494.519 251.354 420.084 307.729 358.807L309.17 360.152C253.083 421.044 224.463 495.095 213.035 575.965L211.114 575.677ZM211.69 588.067C211.69 587.875 211.594 587.395 211.498 586.53C211.402 585.762 211.306 584.705 211.21 583.553C211.018 581.248 210.826 578.366 211.21 575.677L213.131 575.869C212.842 578.462 212.939 581.152 213.227 583.361C213.323 584.513 213.419 585.474 213.515 586.242C213.611 587.01 213.707 587.587 213.707 587.971L211.69 588.067ZM449.195 440.637C370.731 490.581 291.691 539.66 213.131 588.835L212.074 587.202C290.634 538.027 369.675 488.948 448.139 439.004L449.195 440.637ZM494.43 351.411C502.401 366.106 502.785 380.993 495.294 395.976C487.803 410.863 472.437 425.846 449.291 440.637L448.235 439.004C471.284 424.213 486.266 409.519 493.565 395.016C500.768 380.609 500.48 366.394 492.797 352.18L494.43 351.411ZM372.652 312.321C392.82 303.005 418.367 303.773 441.224 311.36C464.081 318.948 484.538 333.355 494.43 351.315L492.701 352.276C483.097 334.795 463.217 320.677 440.648 313.185C418.079 305.694 393.108 304.925 373.516 314.05L372.652 312.321ZM307.729 358.807C325.401 339.694 348.834 323.462 372.652 312.321L373.42 314.05C349.795 325.095 326.649 341.135 309.17 360.055L307.729 358.807ZM212.65 588.067L213.131 588.835L211.69 589.7L211.69 587.971L212.65 588.067Z" fill="#5A4535" fill-opacity="0.5"/>
<path d="M210.927 575.902L210.832 575.887L210.866 575.642C222.288 494.53 251.069 420.114 307.371 358.827L307.371 358.827L307.545 358.638C307.545 358.638 307.545 358.638 307.545 358.638L307.546 358.637L307.716 358.452L307.716 358.453C325.335 339.455 348.628 323.317 372.314 312.203L372.313 312.202L372.546 312.094L372.547 312.094L372.777 311.987L372.778 311.988C392.984 302.749 418.492 303.551 441.303 311.123C464.199 318.723 484.717 333.162 494.649 351.195L494.769 351.413L494.727 351.436C502.661 366.154 503.022 381.079 495.518 396.088L495.518 396.089C487.997 411.033 472.588 426.046 449.426 440.848L449.217 440.982L449.188 440.938C389.946 478.645 330.376 515.86 270.933 552.995C251.762 564.972 232.604 576.941 213.475 588.915L213.477 588.919L213.263 589.047L213.259 589.05L213.054 589.178L213.052 589.174L211.819 589.914L211.44 590.141L211.44 589.7L211.44 588.329L211.44 588.067C211.44 587.994 211.42 587.849 211.382 587.586L211.382 587.585C211.346 587.333 211.298 586.995 211.25 586.559C211.25 586.559 211.25 586.558 211.249 586.558L211.498 586.53C211.402 585.762 211.306 584.705 211.21 583.553C211.024 581.322 210.838 578.552 211.174 575.939L210.927 575.902ZM492.715 352.554L492.603 352.616L492.482 352.396C482.918 334.988 463.099 320.901 440.569 313.423C418.04 305.944 393.139 305.187 373.622 314.276L373.401 314.379L373.383 314.343C349.887 325.349 326.879 341.295 309.475 360.094L309.522 360.138L309.354 360.321C253.393 421.077 224.791 494.946 213.333 575.638L213.407 575.645L213.379 575.897C213.093 578.467 213.189 581.136 213.475 583.328L213.475 583.328L213.476 583.34C213.558 584.328 213.64 585.173 213.722 585.876C232.332 574.229 250.967 562.587 269.615 550.937C329.104 513.773 388.719 476.53 448.005 438.794L448.214 438.66L448.242 438.703C471.194 423.953 486.087 409.319 493.342 394.903C500.465 380.657 500.225 366.612 492.715 352.554Z" stroke="#5A4535" stroke-opacity="0.5" stroke-width="0.5"/>
</g>
</g>
</svg>
